<?xml version="1.0" encoding="utf-8"?>
<!-- Generator: Adobe Illustrator 16.0.0, SVG Export Plug-In . SVG Version: 6.00 Build 0)  -->
<!DOCTYPE svg PUBLIC "-//W3C//DTD SVG 1.1//EN" "http://www.w3.org/Graphics/SVG/1.1/DTD/svg11.dtd">
<svg version="1.1" id="Layer_2" xmlns="http://www.w3.org/2000/svg" xmlns:xlink="http://www.w3.org/1999/xlink" x="0px" y="0px"
	 width="800px" height="800px" viewBox="0 0 800 800" enable-background="new 0 0 800 800" xml:space="preserve">
<path fill="#3A3A3A" d="M775.7,242.074c-1.885-6.438-3.207-13.252-8.047-18.459c0.172-0.78,0.016-1.353-0.908-1.441l0.08-0.055
	c-1.369-4.111-4.033-7.102-7.857-9.088c-2.073-2.134-3.92-4.534-6.731-5.811c-0.072-1.053-0.457-1.782-1.689-1.635l-0.168-0.146
	c-0.096-0.715-0.582-0.985-1.229-1.07l-0.035-0.044c-0.564-2.395-0.693-4.955-2.59-6.846c-1.166-1.709-2.332-3.418-3.498-5.127
	c-2.24-3.921-4.205-8.121-9.295-9.146c-9.675-3.971-17.207-2.153-21.146,5.099c0.002-0.002,0.006-0.004,0.008-0.006l-0.016,0.019
	c0.002-0.004,0.004-0.008,0.008-0.013c-1.494,0.912-1.967,2.371-2.146,3.991c-0.228,0.658-0.453,1.315-0.683,1.973
	c-6.795,1.065-13.475,2.391-18.291,7.988c-5.141,3.821-10.059,8.01-15.5,11.341c-3.949,2.418-7.637,6.129-13.01,5.283
	c-0.551-5.225-0.93-10.474-2.275-15.583c0.015-2.44,0.338-4.924-1.006-7.174c0.17-0.273,0.137-0.52-0.098-0.739
	c-0.67-7.492-1.91-14.879-4.086-22.092c-0.256-7.408-2.633-14.188-6.482-20.41c-2.156-3.485-4.758-6.741-9.322-7.316
	c-2.84-3.269-5.344-6.867-9.069-9.271c-0.42-0.78-1-1.25-1.935-1.041c0.008,0.01,0.017,0.018,0.023,0.029l-0.078-0.02
	c0.02-0.005,0.035-0.005,0.055-0.009c-2.131-3.22-5.715-4.204-8.912-5.78c-3.807-1.6-7.604-3.223-11.422-4.794
	c-7.41-3.05-14.926-4.112-22.633-1.08c-5.244,1.661-10.746,2.751-14.938,6.75c-10.32,6.602-14.515,16.716-16.318,28.257
	c-0.313,1.991,0.602,4.425-1.709,5.859c-2.705-7.849-4.955-15.873-8.941-23.228l0.154-0.375l-0.391-0.109
	c-0.248-0.489-0.496-0.978-0.746-1.467c0.297-0.574,0.611-1.158-0.514-0.999c-0.181-0.325-0.359-0.65-0.537-0.975
	c-0.254-5.624-3.375-10.218-5.656-15.05c-6.166-13.066-15.525-22.419-30.502-24.725l-0.322-0.149l-0.098-0.417l-0.373,0.146
	c-1.244-0.672-2.488-1.343-3.73-2.015l-0.135-0.311l-0.301,0.206c-0.5-0.125-1.002-0.25-1.502-0.374
	c-3.553-3.571-8.215-3.708-12.785-4.131c-7.727-1.928-15.506-2.795-23.412-1.201c-3.176-1.039-5.816,0.063-8.229,2.064
	c-6.293,3.426-10.955,8.083-11.793,15.627c-0.466,0.75-0.66,1.527-0.238,2.367c-2.713,5.307-1.82,11.072-2.119,16.685
	c-0.906,0.589-0.377,2.435-2.053,2.351c0.149-0.591-0.09-0.938-0.67-1.071c-4.854-11.138-13.513-19.56-20.709-29.025
	c0.024-0.482-0.162-0.656-0.624-0.427c-0.081-0.212-0.229-0.357-0.441-0.436c0.137-0.552-0.04-0.747-0.589-0.515
	c-0.082-0.228-0.238-0.376-0.471-0.445c0.13-0.608,0.023-0.809-0.499-0.29c-0.204-0.243-0.448-0.434-0.733-0.573
	c0.274-2.376-1.697-3.447-2.976-4.803c-14.315-15.192-35.721-19.564-55.35-11.387c-2.673,0.535-5.347,1.07-8.02,1.604
	c-2.489-2.978-5.863-4.074-9.532-4.881c-6.004-1.321-11.886,0.246-17.827,0.308c-1.713-2.337-4.092-2.395-6.597-1.861
	c-3.018,0.643-6.019,1.357-9.026,2.041c-4.926-7.254-11.617-4.174-17.971-3.071c-0.906-0.031-1.811-0.063-2.717-0.094
	c-7.531-0.123-15.422-1.294-20.135,6.858c-0.92-0.409-1.84-0.818-2.76-1.229c-5.873-1.056-11.666,0.263-17.473,0.733
	c-2.008,0.163-3.451,1.702-4.049,3.852c-0.426,1.535-0.428,3.298-1.896,4.4c-0.512,0.079-1.023,0.158-1.536,0.238
	c-1.073-1.517-2.435-2.644-4.258-3.145c-0.778-0.824-1.575-0.856-2.393-0.059c-0.402,0.079-0.804,0.157-1.206,0.235
	c-1.984,0.028-3.969,0.039-5.951,0.087c-8.331,0.206-9.35,0.977-11.919,8.962c-1.803,0.617-3.604,1.234-5.409,1.851
	c-1.501-1.905-3.064-3.676-5.889-2.802c-0.658-0.069-1.203,0.06-1.402,0.797l0.012-0.053c-7.473,0.908-15.408,1.139-16.558,11.313
	c-0.017,0.145-0.177,0.273-0.271,0.411c-1.925,0.919-3.849,1.839-5.772,2.758c-2.371-2.611-4.984-3.997-8.334-1.642
	c-2.636,0.955-5.224,2.083-7.918,2.825c-4.458,1.229-5.72,4.017-4.529,8.249c-0.417,0.698-0.833,1.395-1.25,2.093
	c-1.266,0.861-2.531,1.722-3.797,2.583c-2.91-0.728-5.002-4.07-8.574-2.688c-6.545,3.078-14.756,4.728-12.873,15.027
	c-3.04,1.379-5.254,4.182-8.619,5.003c-4.413-4.49-4.26-4.229-11.842,0.226c-4.327,2.542-4.588,4.92-1.449,8.331
	c-0.132,0.238-0.242,0.485-0.33,0.74c-2.234,1.77-4.469,3.54-6.703,5.309c-0.691-0.071-1.383-0.142-2.074-0.212
	c-1.916-3.153-4.092-3.25-6.738-0.77c-2.026,1.899-4.26,3.576-6.401,5.351l-0.089,0.061c-1.182,0.65-0.961,1.431-0.213,2.262
	c0.597,1.293,1.193,2.586,1.789,3.88c-2.148,1.727-4.297,3.455-6.444,5.182c-7.606-2.595-12.604,1.319-16.974,6.802
	c-1.924,2.072-0.031,3.996,0.234,5.982c-7.352-0.776-8.809,5.316-11.551,9.911c-4.226,3.605-3.359,7.866-1.576,12.245
	c-7.688,9.457-8.188,15.854-1.844,23.581c-1.757,3.307-6.249,2.322-8.243,5.256c-6.808,2.914-11.114,8.378-14.774,14.5
	c-3.538,3.402-1.518,7.717-1.911,11.636c-1.882,2.998-2.624,6.371-3.052,9.803c-0.767,6.158,0.527,12.144,1.753,18.123
	c-0.509,2.844,0.177,5.487,1.351,8.048c-0.064,7.651-0.031,15.305-0.23,22.953c-0.104,3.913,0.76,7.425,2.294,11.05
	c9.578,22.624,20.203,44.81,28.616,67.922c12.379,34.009,24.715,68.033,37.098,102.041c0.422,1.157,0.692,3.555,1.932,2.965
	c3.357-1.598,8.161-0.404,10.044-4.925c1.747-5.012-1.41-8.886-3.042-13.113l0.051,0.07c-1.078-4.905-2.701-9.615-5.031-14.072
	l0.061,0.051c-2.248-9.507-6.24-18.425-9.439-27.606c-2.637-7.572-4.495-15.46-8.51-22.519c0,0,0.127,0.042,0.125,0.041
	c-1.968-6.384-3.091-13.043-6.213-19.051c-3.438-12.064-8.623-23.476-13.073-35.164c-3.271-8.589-7.828-16.673-10.039-25.671
	c0.339-0.012,0.679-0.023,1.018-0.036l0.04,0.054c1.003,2.727,3.272,4.48,5.068,6.598l0.014,0.274l0.262,0.084
	c-0.096,0.527,0.123,0.779,0.659,0.752l0.167,0.274c-0.105,0.609,0.164,0.941,0.763,1.031c1.722,2.322,3.442,4.646,5.164,6.969
	c0.254,0.361,0.508,0.724,0.762,1.086l0.015,0.021c0.021,0.807,0.27,1.463,1.141,1.7l0.121,0.164
	c-0.059,0.594,0.193,0.947,0.796,1.027l0.042,0.062c-0.029,0.796,0.416,1.252,1.101,1.536l0.218,0.348
	c-0.078,0.563,0.172,0.84,0.732,0.85l0.126,0.164c-0.064,0.594,0.173,0.957,0.786,1.034l0.047,0.069
	c0.264,1.205,0.751,2.25,1.994,2.746c0.357,0.405,0.713,0.811,1.069,1.216c-0.081,0.598,0.125,1.011,0.739,1.159
	c1.605,2.39,1.988,4.728,1.502,7.79c-0.613,3.858-2.759,8.779,1.067,11.766c9.698,7.571,17.829,17.093,28.734,23.145l-0.009,0.001
	c0.291,0.973,0.853,1.7,1.838,2.051c2.051,2.279,4.103,4.561,6.154,6.841c0,0,0.129,0.152,0.128,0.152
	c0.272,0.321,0.546,0.643,0.818,0.964l0.049,0.077c-0.036,0.631,0.292,0.964,0.882,1.081l-0.025-0.032
	c0.324,0.417,0.646,0.834,0.971,1.25c2.127,2.902,4.254,5.807,6.381,8.71c0.252,0.298,0.503,0.596,0.754,0.894l0.057,0.082
	c0.289,0.362,0.578,0.725,0.867,1.087l-0.016-0.02c0.319,1.244,0.966,2.259,2.07,2.952c0.254,0.361,0.508,0.724,0.761,1.086
	c0.282,1.345,1.004,2.392,2.142,3.153c-0.051,0.358,0.088,0.613,0.416,0.765c0.238,0.288,0.476,0.575,0.713,0.863l0.063,0.109
	c-0.021,0.581,0.185,0.999,0.794,1.127c0-0.007-0.004-0.013-0.005-0.021l0.025,0.027c-0.008-0.002-0.013-0.006-0.021-0.008
	c0.219,1.294,0.855,2.311,1.986,3.001c-0.001-0.002-0.002-0.003-0.002-0.005l0.011,0.012c-0.003-0.002-0.006-0.005-0.009-0.007
	c0.422,1.291,0.846,2.583,1.269,3.874c-1.104,1.867-4.775,2.819-2.143,6.018c3.494,2.232,6.092,5.857,10.455,6.744
	c3.973,3.041,5.871,7.809,9.363,11.249c0.117,0.872,0.607,1.457,1.399,1.81l-0.257,0.125l0.262-0.107
	c0.363,1.772,1.515,3.011,2.813,4.149c0.292,0.373,0.584,0.746,0.877,1.12c7.022,11.362,12.613,23.488,18.779,35.309
	c2.352,4.51,4.238,9.343,8.25,12.79c1.024,2.606,2.049,5.215,3.072,7.823c2.375,13.227,4.748,26.453,7.123,39.681
	c-1.752,4.533-2.312,9.239-2.037,14.066c-0.667,5.108-1.333,10.218-2,15.326c-0.162,0.313-0.188,0.637-0.08,0.971
	c-1.104,2.994-2.043,5.987-0.064,9.005l0.038-0.048c0.737,1.513,3.06,0.347,3.378,1.435c1.413,4.819,5.329,3.367,8.493,3.646
	c4.688,0.409,9.657-1.135,13.897,2.215c0.68,0.537,1.682,0.545,2.311-0.1c3.504-3.579,5.75-0.708,8.264,1.447
	c3.275,2.812,6.616,5.551,10.035,8.185c1.354,1.044,2.558,2.823,4.757,1.918c1.341,0.811,0.776,2.063,0.743,3.192
	c-0.796,0.108-1.794,0.022-2.001,1.046c-1.071,5.288-2.921,10.322-1.063,16.077c1.05,3.25,1.657,5.915,5.169,6.94
	c2.053,3.322,4.106,6.645,6.159,9.967c4.58,9.376,12.654,16.806,15.205,27.34c0.254,1.05,1.029,2.563,2.842,1.841
	c5.273-2.095,8.771-12.778,5.904-18.057c-2.166-5.556-5.402-10.531-8.443-15.613c0.741-0.15,1.482-0.303,2.224-0.452
	c4.101,4.434,8.745,8.166,14.11,10.973c0.406,2.199,2.188,3.129,3.843,4.174c0.605,0.927,1.2,1.867,2.474,1.943
	c6.541,5.804,13.961,7.573,22.355,4.877c1.981,0.233,3.664-1.781,5.748-0.77c6.538,3.178,13.074,6.355,19.612,9.541
	c0.541,2.342,1.637,4.317,3.721,5.644c0.301,0.266,0.602,0.532,0.902,0.799c2.525,2.359,5.914,2.856,8.958,4.06
	c4.071,1.607,8.094,2.194,11.149-2.071c0.626-0.874,1.438-1.386,2.555-0.854c6.528,3.104,13.947,2.865,20.605,5.492
	c0.716,1.514,1.433,3.027,2.146,4.534c0.301,1.28,1.189,1.701,2.404,1.646c4.513,1.404,9.163,0.748,13.755,0.876
	c2.511,0.069,3.821-1.618,4.559-3.83c6.692,0.895,13.388,1.788,20.083,2.687c0.717,1.433,1.371,2.919,3.026,3.553
	c0.556,0.769,1.355,0.721,2.162,0.655c5.91,0.45,12.392,4.159,16.986-3.047c0.299-0.47,1.539-0.464,2.342-0.464
	c7.125,0.011,14.25,0.068,21.375,0.112c0.756,1.479,1.316,3.123,3.14,3.696c1.17,1.318,2.803,0.825,4.188,0.882
	c4.58,0.188,9.979,1.914,11.207-5.259c0.203-1.18,1.529-1.03,2.473-1.069c1.966-0.083,3.935-0.087,5.9-0.123
	c0.34,0.161,0.682,0.322,1.021,0.483l-0.118,0.168l0.219-0.063c1.096,0.974,2.192,1.944,3.289,2.917
	c6.104,5.42,13.209,5.666,20.539,3.599c2.76-0.778,5.026-1.607,6.832,1.432c0.967,1.625,2.354,1.371,3.879,0.669
	c2.815-1.297,5.692-2.462,8.545-3.682c1.891-1.38,0.469-3.672,1.461-5.299c5.242-0.625,9.555-3.635,14.293-5.553
	c1.469-0.595,2.66-1.462,4.561-0.287c4.439,2.74,9.604,0.947,12.545-3.926c2.015-1.677,5.433-1.061,6.636-4.062
	c3.744-2.646,7.186-5.63,10.225-9.068c0.328-0.366,0.588-0.843,0.99-1.081c3.229-1.912,5.158-8.183,10.526-3.126
	c0.607,0.571,1.498-0.273,2.084-0.861c1.951-1.955,3.9-3.912,5.851-5.868c1.008-0.11,2.481-0.623,1.719-1.586
	c-2.279-2.873-0.139-4.592,1.205-6.602c1-0.685,1.998-1.37,2.996-2.055c2.822,0.59,5.799,2.539,8.164-0.921
	c7.977,1.259,11.379-4.427,14.953-9.852c2.36-1.525-0.758-4.147,1.537-6.145c5.504-4.791,8.375-11.449,11.309-17.976l0.029-0.021
	c0.215-0.311,0.43-0.62,0.645-0.931c1.814-0.945,3.834-1.67,4.349-4.021c0.77-0.42,1.075-1.089,1.041-1.939l0.012-0.03
	c1.467-2.05,2.1-4.359,2.143-6.854c0.275-0.189,0.345-0.438,0.207-0.745c0.084-0.408,0.166-0.818,0.25-1.229
	c0.029-1.075,0.06-2.15,0.088-3.228c0.438-0.647,1.447-0.939,1.242-1.988c1.515-0.758,3.283-1.175,3.979-3.015
	c4.448-3.843,8.271-18.306,6.227-23.695c-0.166-0.438-0.629-0.761-0.955-1.138c-0.914-1.885-0.465-3.689,0.006-5.64
	c2.814-11.672,8.394-22.081,14.474-32.274c2.666-4.127,4.838-8.512,6.776-13.017c0.252-0.565,0.502-1.133,0.752-1.699
	c6.343-10.955,11.365-22.531,15.732-34.372c13.924-37.752,27.674-75.566,41.512-113.351c5.199-14.192,10.455-28.363,15.687-42.543
	c0.563-0.188,0.735-0.574,0.571-1.131c0.091-0.424,0.183-0.847,0.273-1.271c0.598-0.411,0.904-0.946,0.721-1.691
	c0.636-1.071,1.351-2.114,1.234-3.453c0.213-0.516,0.428-1.032,0.641-1.548c0.125-0.456,0.25-0.911,0.375-1.366
	c0.248-0.554,0.496-1.108,0.742-1.662c0.098-0.419,0.195-0.838,0.293-1.257l0.346-0.236l-0.139-0.36
	c0.74-0.618,0.816-1.466,0.808-2.342c3.67-8.652,5.737-17.77,7.823-26.883C783.464,283.989,781.796,262.898,775.7,242.074z
	 M181.368,332l-58.667-58.833c0,0-5.667-9.333-6.667-9.5c3.167-3.333,39.833-34.167,43.833-35.333l49.667,69.833L181.368,332z
	 M253.534,413c-1.5-0.75-7.75-7.125-9.625-12.125c0.5-6.75-1.25-16.333-9.5-24.292c3-4.333,9.5-12.583,9.5-12.583
	s0.5,2.625,5.25,2.75c1.25,3.75,0.875,7,5,8.125c0,2.625,0.375,6.75,3,8.125c1,3.125,1.5,8,4.625,9.125
	c-0.875,2.125-1.25,5.25,2.875,7.875C260.409,403.375,256.034,407.25,253.534,413z M253.534,169.667c0,0,39.125-21.792,76-33.667
	c0,0,1.167,14.667,15.5,30.333c2.917,6.417,9.917,18.083,10.833,33.75c-4.342,0.79-18.025,4.27-20.73,6.335l-0.001,0.001l0,0
	c-0.148,0.115-0.272,0.226-0.352,0.331c0.069-0.096,0.128-0.178,0.194-0.271c-2.074,0.784-26.725,10.257-46.028,24.855
	c-1.602,0.064-2.117-1.84-2.006-3.028l-0.036,0.028c0,0-11.402-13.278-21.5-36.458C257.909,176.625,253.534,169.667,253.534,169.667
	z M288.201,376.25c0,0-0.5,0.75-1.667,0c-0.167-5-6.75-6.667-6.75-6.667l-7-10.25c0,0-1.917-3.5-5.667-9.167
	c5-6.167,1.833-11.167,0-13.167c4.167-7.083,31-28.75,31-28.75h0.333c-2.833,2.083,2.5,3.667,3.417,3.75
	c-1.167,4.083,1.5,5.083,3.25,7.083c-0.583,3.5,2,6.75,3.417,8.167c-1.667,3.917,1.5,6.083,2.667,9.333
	c-1,3.75,3.25,7.667,3.25,7.667s-0.083,1.5,1.917,4.5C308.284,353.583,288.201,376.25,288.201,376.25z M358.451,312.333
	c-4,0.917-18.167,15.75-21.083,17.583c-2.25-1.417-8.583-11.333-8.583-11.333s-5.917-11.917-6.833-14.75
	c-0.167-5.25-4.5-11.667-4.5-11.667s2.833-2.5,11.667-9.083c13.667-9.667,31.917-18.417,31.917-18.417l6.25,22.25l2.083,18.417
	C369.368,305.333,363.201,309.333,358.451,312.333z"/>
<path fill="#080809" d="M570.778,130.352l-12.843,15.431C560.521,139.659,564.519,134.356,570.778,130.352z M442.938,106.987
	L454.73,91.36C448.438,94.786,443.774,99.443,442.938,106.987z M442.481,108.609l0.454-1.622
	C442.612,107.51,442.425,108.047,442.481,108.609z M490.201,105l18.666,12l17,24.333l5.667,30.333l0.334,37.667l-7.41,29.535
	l-2.924,44.798l-7.666,58.667l0.333,14l-0.333,7.333l6.087,3.287l8.922-22.239l5.476-25.294l10.397-20.558l2.435-24.145
	l3.783-21.474l1.405-28.258l0.161-29.318l3.31-28.082l2.092-21.801c-1.677,3.971-2.766,8.285-3.476,12.825
	c-0.313,1.991,0.602,4.425-1.709,5.859c-2.705-7.849-4.955-15.873-8.941-23.228l0.154-0.375l-0.391-0.109
	c-0.248-0.489-0.496-0.978-0.746-1.467c0.297-0.574,0.611-1.158-0.514-0.999c-0.181-0.325-0.359-0.65-0.537-0.975
	c-0.254-5.624-3.375-10.218-5.656-15.05c-6.166-13.066-15.525-22.419-30.502-24.725l-0.322-0.149l-0.098-0.417l-0.373,0.146
	c-1.244-0.672-2.488-1.343-3.73-2.015l-0.135-0.311L500.659,95c-0.5-0.125-1.002-0.25-1.502-0.374
	c-3.553-3.571-8.215-3.708-12.785-4.131c-7.727-1.928-15.506-2.795-23.412-1.201c-3.176-1.039-5.815,0.063-8.229,2.064l20.472,3.974
	L490.201,105z M365.534,88.333l21,3.026l19.521,18.549L423.201,125l11.049,30.479L435.034,191l6.126,34.459l4.146,16.85
	l0.394,24.728l-3.833,25.663l-0.666,17.3l-1.145,11.44c0,0,6.811-2.815,7.811-4.44s10.667-40.333,10.667-40.333l2.333-32.333
	l-6.666-53.667l-14.493-62.905c-0.197,0.381-0.51,0.662-1.182,0.628c0.149-0.591-0.091-0.938-0.67-1.071
	c-4.854-11.138-13.513-19.56-20.71-29.025c0.025-0.482-0.161-0.656-0.623-0.427c-0.081-0.212-0.229-0.357-0.441-0.436
	c0.137-0.552-0.04-0.747-0.589-0.515c-0.082-0.228-0.238-0.376-0.472-0.445c0.131-0.608,0.024-0.809-0.498-0.29
	c-0.204-0.243-0.448-0.434-0.733-0.573c0.274-2.376-1.697-3.447-2.976-4.803c-14.315-15.192-35.721-19.564-55.35-11.387
	c-2.673,0.535-5.347,1.07-8.02,1.604c-1.641-1.962-3.668-3.1-5.908-3.883L328.201,90l-2.455,15.322l8.788-11.655L365.534,88.333z
	 M637.453,231.699l2.723-10.374l-1.563-4.688c0,0-9.078,55.697-11.412,63.697S616.534,314,616.534,314l-19,55.333l-17.995,35.931
	l-11.755,17.446l-3.016,10.982l2.169,4.227l8.472-2.17l10.125-14.416l11.347-22.66l14.5-37.019l16.796-35.936l10.438-32.386
	l8.394-17.082l7.194-21.918l9.666-14.066l7.479-12.558V223l-1.104,0.04l-1.601,2.639L637.453,231.699z M662.956,218.881
	c-0.551-5.225-0.93-10.474-2.275-15.583c0.015-2.44,0.338-4.924-1.006-7.174c0.17-0.273,0.138-0.52-0.098-0.739
	c-0.67-7.492-1.91-14.879-4.086-22.092c-0.256-7.408-2.633-14.188-6.482-20.41c-2.156-3.485-4.758-6.741-9.322-7.316
	c-2.84-3.269-5.344-6.867-9.069-9.271c-0.42-0.78-1-1.25-1.935-1.041c0.009,0.01,0.017,0.018,0.023,0.029l-0.078-0.02
	c0.021-0.005,0.035-0.005,0.055-0.009c-2.131-3.22-5.715-4.204-8.912-5.78c-3.807-1.6-7.604-3.223-11.422-4.794
	c-7.409-3.05-14.926-4.112-22.633-1.08c-5.244,1.661-10.746,2.751-14.938,6.75l21.757-2.018l22,13.333l18.938,15.88l3.207,25.926
	l5.854,28.86l-2.359,8.992l0.922,2.768l29.146-1.053l5.722-9.442C672.017,216.016,668.329,219.728,662.956,218.881z M775.7,242.074
	c-1.885-6.438-3.207-13.252-8.047-18.459c0.172-0.78,0.016-1.353-0.908-1.441l0.08-0.055c-1.369-4.111-4.033-7.102-7.857-9.088
	c-2.073-2.134-3.92-4.534-6.731-5.811c-0.072-1.053-0.457-1.782-1.689-1.635l-0.168-0.146c-0.096-0.715-0.582-0.985-1.229-1.07
	l-0.035-0.044c-0.564-2.395-0.693-4.955-2.59-6.846c-1.166-1.709-2.332-3.418-3.498-5.127c-2.24-3.921-4.205-8.121-9.295-9.146
	c-9.675-3.971-17.207-2.153-21.146,5.099c0.002-0.002,0.006-0.004,0.008-0.006l-0.016,0.019c0.002-0.004,0.004-0.008,0.008-0.013
	c-1.494,0.912-1.967,2.371-2.146,3.991c-0.228,0.658-0.453,1.315-0.683,1.973c-6.795,1.065-13.475,2.391-18.291,7.988
	c-5.141,3.821-10.059,8.01-15.5,11.341l39.902-19.265l28,20l10,23.215l-2.667,52.118l-24,85.333l-28,84.667l-13.587,54.785
	l-27.92,64.21L615.201,657l-66.667,49.333l-101.332,9.322L373.201,709l-82.121-49.333l-27.879-29.334l-32.667-64.666L206.113,517
	l-35.594-39.488L129.867,420.9L65.201,307.667c0,0-2.355-14.884-17.333-46c-7.835-35.977,11.897-32.411,11.897-32.411
	l-15.584-17.133c-3.019,6.1-2.098,11.122,2.631,16.881c-1.757,3.307-6.249,2.322-8.243,5.256c-6.808,2.914-11.114,8.378-14.774,14.5
	c-3.538,3.402-1.518,7.717-1.911,11.636c-1.882,2.998-2.624,6.371-3.052,9.803c-0.767,6.158,0.527,12.144,1.753,18.123
	c-0.509,2.844,0.177,5.487,1.351,8.048c-0.064,7.651-0.031,15.305-0.23,22.953c-0.104,3.913,0.76,7.425,2.294,11.05
	c9.578,22.624,20.203,44.81,28.616,67.922c12.379,34.009,24.715,68.033,37.098,102.041c0.422,1.157,0.692,3.555,1.932,2.965
	c3.357-1.598,8.161-0.403,10.044-4.925c1.747-5.012-1.41-8.886-3.042-13.113l0.051,0.07c-1.078-4.905-2.701-9.615-5.031-14.072
	l0.061,0.052c-2.248-9.508-6.24-18.426-9.439-27.607c-2.637-7.572-4.495-15.46-8.51-22.518c0,0,0.127,0.041,0.125,0.04
	c-1.968-6.384-3.091-13.043-6.213-19.051c-3.438-12.064-8.623-23.476-13.073-35.164c-3.271-8.589-7.828-16.673-10.039-25.671
	c0.339-0.012,0.679-0.023,1.018-0.036l0.04,0.054c1.003,2.727,3.272,4.48,5.068,6.598l0.014,0.274l0.262,0.084
	c-0.096,0.527,0.123,0.779,0.659,0.752l0.167,0.274c-0.105,0.609,0.164,0.941,0.763,1.031c1.722,2.322,3.442,4.646,5.164,6.969
	c0.254,0.361,0.508,0.724,0.762,1.086l0.015,0.021c0.021,0.807,0.27,1.463,1.141,1.7l0.121,0.164
	c-0.059,0.594,0.193,0.947,0.796,1.027l0.042,0.062c-0.029,0.796,0.416,1.252,1.101,1.536l0.218,0.348
	c-0.078,0.563,0.172,0.84,0.732,0.85l0.126,0.164c-0.064,0.594,0.173,0.957,0.786,1.034l0.047,0.069
	c0.264,1.205,0.751,2.25,1.994,2.746c0.357,0.405,0.713,0.811,1.069,1.216c-0.081,0.598,0.125,1.011,0.739,1.159
	c1.605,2.39,1.988,4.728,1.502,7.79c-0.613,3.858-2.759,8.779,1.067,11.766c9.698,7.571,17.829,17.093,28.734,23.145l-0.009,0.001
	c0.291,0.973,0.853,1.7,1.838,2.051c2.051,2.279,4.103,4.561,6.154,6.841c0,0,0.129,0.152,0.128,0.152
	c0.272,0.321,0.546,0.643,0.818,0.964l0.049,0.077c-0.036,0.631,0.292,0.964,0.882,1.081l-0.025-0.032
	c0.324,0.417,0.646,0.834,0.971,1.25c2.127,2.902,4.254,5.807,6.381,8.71c0.252,0.298,0.503,0.596,0.754,0.894l0.057,0.082
	c0.289,0.362,0.578,0.726,0.867,1.087l-0.016-0.02c0.319,1.244,0.966,2.259,2.07,2.952c0.254,0.361,0.508,0.724,0.761,1.086
	c0.282,1.345,1.004,2.392,2.142,3.153c-0.051,0.358,0.088,0.613,0.416,0.765c0.238,0.288,0.476,0.576,0.713,0.863l0.063,0.109
	c-0.021,0.581,0.185,0.999,0.794,1.127c0-0.007-0.004-0.013-0.005-0.021l0.025,0.027c-0.008-0.002-0.013-0.006-0.021-0.008
	c0.219,1.294,0.855,2.311,1.986,3.001c-0.001-0.002-0.002-0.003-0.002-0.005l0.011,0.012c-0.003-0.002-0.006-0.005-0.009-0.007
	c0.422,1.291,0.846,2.583,1.269,3.874c-1.104,1.867-4.775,2.819-2.143,6.019c3.494,2.231,6.092,5.856,10.455,6.743
	c3.973,3.041,5.871,7.809,9.363,11.249c0.117,0.872,0.607,1.457,1.399,1.81l-0.257,0.125l0.262-0.107
	c0.363,1.772,1.515,3.011,2.813,4.149c0.292,0.373,0.584,0.746,0.877,1.12c7.022,11.362,12.613,23.488,18.779,35.309
	c2.352,4.51,4.238,9.343,8.25,12.79c1.024,2.607,2.049,5.215,3.072,7.823c2.375,13.227,4.748,26.453,7.123,39.681
	c-0.269,0.696-0.501,1.398-0.715,2.104l1.304-1.633c0,0,0.833,2.696,1.5,5.196c10.833,2.5,18.5-7.5,18.5-7.5l1.078,2.304
	c0,0-0.745,0.696-6.262,4.362c-11.184,5.666-14.65,3.167-14.65,3.167l-1.479-5.868c-1.173,3.871-1.545,7.858-1.313,11.935
	c-0.667,5.108-1.333,10.218-2,15.327c-0.162,0.313-0.188,0.636-0.08,0.97c-1.104,2.994-2.043,5.988-0.064,9.005l0.038-0.048
	c0.737,1.513,3.06,0.347,3.378,1.435c1.413,4.819,5.329,3.367,8.493,3.646c4.688,0.41,9.657-1.134,13.897,2.215
	c0.68,0.537,1.682,0.545,2.311-0.099c0.16-0.164,0.315-0.301,0.471-0.438c-0.05,0.031-0.099,0.067-0.151,0.09
	c0.059-0.034,0.11-0.069,0.167-0.104c0.103-0.09,0.204-0.176,0.304-0.255c2.155-2.419,1.863-13.976,1.863-13.976l1.833,1.834
	l1.667,2.833l1.667,1.333l2.667,2.5c0,0,14.667,16.5,15.5,18.167c-4.167,0.167-10-7.5-14.167-12.333c-1.5-3.666-6.167-7-7.5-7.167
	c-0.284,2.271-0.695,4.539-2.764,6.296c2.655-1.464,4.587,0.85,6.708,2.666c3.275,2.812,6.616,5.552,10.035,8.185
	c1.354,1.044,2.558,2.824,4.757,1.918c1.341,0.811,0.776,2.063,0.743,3.193c-0.796,0.107-1.794,0.021-2.001,1.046
	c-1.071,5.288-2.921,10.321-1.063,16.077c1.05,3.25,1.657,5.914,5.169,6.939c2.053,3.322,4.106,6.646,6.159,9.967
	c4.58,9.376,12.654,16.807,15.205,27.34c0.254,1.051,1.029,2.563,2.842,1.842c5.273-2.096,8.771-12.779,5.904-18.058
	c-2.166-5.556-5.402-10.53-8.443-15.612c0.741-0.151,1.482-0.304,2.224-0.453c4.101,4.434,8.745,8.167,14.11,10.973
	c0.406,2.199,2.188,3.129,3.843,4.174c0.605,0.928,1.2,1.867,2.474,1.943c6.541,5.804,13.961,7.574,22.355,4.877
	c1.981,0.234,3.664-1.781,5.748-0.769c6.538,3.177,13.074,6.354,19.612,9.541c0.541,2.342,1.637,4.316,3.721,5.643
	c0.301,0.266,0.602,0.532,0.902,0.799c2.525,2.359,5.914,2.857,8.958,4.061c4.071,1.606,8.094,2.193,11.149-2.072
	c0.626-0.874,1.438-1.385,2.555-0.854c6.528,3.104,13.947,2.865,20.605,5.492c0.716,1.514,1.434,3.027,2.146,4.534
	c0.301,1.28,1.189,1.701,2.404,1.646c4.513,1.404,9.163,0.748,13.755,0.877c2.511,0.068,3.821-1.618,4.559-3.83
	c6.692,0.894,13.388,1.787,20.083,2.686c0.717,1.433,1.371,2.919,3.026,3.553c0.556,0.77,1.355,0.722,2.162,0.655
	c5.91,0.45,12.392,4.159,16.986-3.047c0.299-0.469,1.539-0.464,2.342-0.463c7.125,0.01,14.25,0.067,21.375,0.111
	c0.756,1.479,1.316,3.123,3.14,3.696c1.17,1.319,2.803,0.825,4.188,0.882c4.58,0.188,9.979,1.914,11.207-5.259
	c0.203-1.18,1.529-1.03,2.473-1.068c1.966-0.084,3.935-0.088,5.9-0.123c0.34,0.16,0.682,0.321,1.021,0.482l-0.118,0.168l0.219-0.063
	c1.096,0.973,2.193,1.943,3.289,2.917c6.104,5.419,13.209,5.666,20.539,3.598c2.76-0.778,5.026-1.606,6.832,1.432
	c0.967,1.625,2.354,1.371,3.879,0.669c2.815-1.297,5.692-2.462,8.545-3.682c1.891-1.38,0.469-3.672,1.461-5.299
	c5.242-0.625,9.555-3.634,14.293-5.552c1.469-0.596,2.66-1.462,4.561-0.288c4.439,2.741,9.604,0.947,12.546-3.925
	c2.014-1.678,5.432-1.062,6.635-4.063c3.744-2.645,7.186-5.63,10.225-9.068c0.328-0.365,0.588-0.843,0.99-1.081
	c3.229-1.911,5.158-8.183,10.527-3.125c0.606,0.57,1.497-0.274,2.084-0.862c1.95-1.955,3.899-3.912,5.85-5.868
	c1.008-0.11,2.481-0.623,1.719-1.586c-2.279-2.873-0.139-4.591,1.205-6.602c1-0.685,1.998-1.369,2.996-2.055
	c2.822,0.59,5.799,2.539,8.164-0.921c7.977,1.259,11.379-4.427,14.953-9.851c2.36-1.526-0.758-4.148,1.537-6.146
	c5.504-4.791,8.375-11.449,11.309-17.975l0.029-0.021c0.215-0.311,0.43-0.62,0.645-0.931c1.814-0.945,3.834-1.67,4.349-4.021
	c0.77-0.42,1.075-1.089,1.041-1.939l0.012-0.03c1.467-2.05,2.1-4.359,2.143-6.854c0.275-0.19,0.345-0.439,0.207-0.745
	c0.084-0.409,0.166-0.819,0.25-1.229c0.029-1.075,0.06-2.149,0.088-3.227c0.438-0.648,1.447-0.94,1.242-1.989
	c1.515-0.758,3.283-1.175,3.979-3.014c4.449-3.844,8.271-18.307,6.227-23.696c-0.166-0.437-0.629-0.761-0.955-1.137
	c-0.914-1.886-0.465-3.69,0.006-5.641c2.814-11.672,8.394-22.081,14.474-32.273c2.666-4.127,4.838-8.513,6.776-13.018
	c0.252-0.565,0.502-1.133,0.752-1.698c6.343-10.955,11.365-22.532,15.732-34.372c13.924-37.752,27.674-75.567,41.512-113.352
	c5.199-14.192,10.455-28.363,15.687-42.543c0.563-0.188,0.735-0.574,0.571-1.131c0.091-0.424,0.183-0.847,0.273-1.271
	c0.598-0.411,0.904-0.946,0.721-1.691c0.636-1.071,1.351-2.114,1.234-3.453c0.213-0.516,0.428-1.032,0.641-1.548
	c0.125-0.456,0.25-0.911,0.375-1.366c0.248-0.554,0.496-1.108,0.742-1.662c0.099-0.419,0.195-0.838,0.293-1.257l0.347-0.236
	l-0.14-0.36c0.74-0.618,0.816-1.466,0.808-2.342c3.67-8.652,5.737-17.77,7.823-26.883
	C783.464,283.989,781.796,262.898,775.7,242.074z M202.868,580.334c-0.833-4.667-21.5-47.5-21.5-47.5l2.5-2.5l2.167,3.667
	c0,0,13.667,31,16.833,39.5C206.201,581.001,205.701,580.668,202.868,580.334z"/>
<path fill="#07090A" d="M328.784,318.583c0,0-5.917-11.917-6.833-14.75c-0.167-5.25-4.5-11.667-4.5-11.667s2.833-2.5,11.667-9.083
	c13.667-9.667,31.917-18.417,31.917-18.417l5.051,17.981l3.699-3.648l-2.25-20l-6.5-35l-5-28l-1.085-3.336
	c0.438,2.364,0.767,4.832,0.918,7.419c-4.342,0.79-18.025,4.27-20.73,6.335l-0.001,0.001l0,0c-0.148,0.115-0.272,0.226-0.352,0.331
	c0.07-0.096,0.128-0.178,0.195-0.271c-2.075,0.784-26.726,10.257-46.029,24.855c-1.602,0.064-2.117-1.84-2.006-3.028l-0.036,0.028
	c0,0-11.402-13.278-21.5-36.458c-7.5-15.25-11.875-22.208-11.875-22.208s39.125-21.792,76-33.667c0,0,1.167,14.667,15.5,30.333
	c1.042,2.293,2.606,5.268,4.229,8.844L336.034,134.5c0,0-11.476-57.58-17.612-59.54s-3.159-0.749-4.931-0.372
	c-3.018,0.643-6.019,1.357-9.026,2.041c-4.926-7.254-11.617-4.174-17.971-3.071c-0.906-0.031-1.811-0.063-2.717-0.094
	c-7.531-0.123-15.422-1.294-20.135,6.858c-0.92-0.409-1.84-0.818-2.76-1.229c-5.873-1.056-11.666,0.263-17.473,0.733
	c-2.008,0.163-3.451,1.702-4.049,3.852c-0.426,1.535-0.428,3.298-1.896,4.4c-0.512,0.079-1.023,0.158-1.536,0.238
	c-1.073-1.517-2.435-2.644-4.258-3.145c-0.778-0.824-1.575-0.856-2.393-0.059c-0.402,0.079-0.804,0.157-1.206,0.235
	c-1.984,0.028-3.969,0.039-5.951,0.087c-8.331,0.206-9.35,0.977-11.919,8.962c-1.803,0.617-3.604,1.234-5.409,1.851
	c-1.501-1.905-3.064-3.676-5.889-2.802c-0.658-0.069-1.203,0.06-1.402,0.797l0.012-0.053c-7.473,0.908-15.408,1.139-16.558,11.313
	c-0.017,0.145-0.177,0.273-0.271,0.411c-1.925,0.919-3.849,1.839-5.772,2.758c-2.371-2.611-4.984-3.997-8.334-1.642
	c-2.636,0.955-5.224,2.083-7.918,2.825c-4.458,1.229-5.72,4.017-4.529,8.249c-0.417,0.698-0.833,1.395-1.25,2.093
	c-1.266,0.861-2.531,1.722-3.797,2.583c-2.91-0.728-5.002-4.07-8.574-2.688c-6.545,3.078-14.756,4.728-12.873,15.027
	c-3.04,1.379-5.254,4.182-8.619,5.003c-4.413-4.49-4.26-4.229-11.842,0.226c-4.327,2.542-4.588,4.92-1.449,8.331
	c-0.132,0.238-0.242,0.485-0.33,0.74c-2.234,1.77-4.469,3.54-6.703,5.309c-0.691-0.071-1.383-0.142-2.074-0.212
	c-1.916-3.153-4.092-3.25-6.738-0.77c-2.026,1.899-4.26,3.576-6.401,5.351l-0.089,0.061c-1.182,0.65-0.961,1.431-0.213,2.262
	c0.597,1.293,1.193,2.586,1.789,3.88c-2.148,1.727-4.297,3.455-6.444,5.182c-7.606-2.595-12.604,1.319-16.974,6.802
	c-1.924,2.072-0.031,3.996,0.234,5.982c-7.352-0.776-8.809,5.316-11.551,9.911c-4.226,3.605-3.359,7.866-1.576,12.245
	c-7.59,9.336-8.162,15.692-2.07,23.288C65.452,222.864,77.534,247,77.534,247s43.25,25.5,58.856,39.895c0,0,0.001,0.001,0.002,0.001
	l-13.691-13.729c0,0-5.667-9.333-6.667-9.5c3.167-3.333,39.833-34.167,43.833-35.333l49.667,69.833l-28.147,33.811
	c5.118,5.374,9.132,9.579,11.147,11.522c10.25,8,51.375,59.638,51.375,59.638l0.708-0.697c-0.272-0.53-0.518-1.057-0.708-1.564
	c0.5-6.75-1.25-16.333-9.5-24.292c3-4.333,9.5-12.583,9.5-12.583s0.5,2.625,5.25,2.75c1.25,3.75,0.875,7,5,8.125
	c0,2.625,0.375,6.75,3,8.125c0.519,1.62,0.905,3.708,1.59,5.502l20.29-20.009l-6.255-9.159c0,0-1.917-3.5-5.667-9.167
	c5-6.167,1.833-11.167,0-13.167c4.167-7.083,31-28.75,31-28.75h0.333c-2.833,2.083,2.5,3.667,3.417,3.75
	c-1.167,4.083,1.5,5.083,3.25,7.083c-0.583,3.5,2,6.75,3.417,8.167c-1.667,3.917,1.5,6.083,2.667,9.333
	c-0.021,0.078-0.026,0.155-0.042,0.233l17.961-17.713C328.907,318.776,328.784,318.583,328.784,318.583z"/>
<path fill="#FBDF8F" d="M650.544,640.26c-2.934,6.525-5.805,13.185-11.309,17.976c-2.295,1.995,0.823,4.617-1.537,6.145
	c-3.574,5.424-6.978,11.109-14.953,9.852c-2.365,3.46-5.342,1.511-8.164,0.921c-0.998,0.685-1.996,1.37-2.996,2.055
	c-1.344,2.01-3.484,3.729-1.205,6.601c0.764,0.964-0.711,1.477-1.719,1.587c-1.949,1.955-3.898,3.912-5.851,5.867
	c-0.586,0.588-1.477,1.435-2.084,0.862c-5.368-5.057-7.299,1.214-10.526,3.126c-0.402,0.238-0.662,0.715-0.99,1.081
	c-3.039,3.438-6.479,6.424-10.225,9.068c-1.203,3.001-4.621,2.385-6.636,4.062c-2.94,4.873-8.104,6.666-12.545,3.925
	c-1.899-1.174-3.092-0.307-4.561,0.288c-4.738,1.918-9.051,4.927-14.293,5.552c-0.992,1.628,0.43,3.919-1.461,5.3
	c-2.853,1.22-5.729,2.385-8.545,3.682c-1.523,0.702-2.912,0.956-3.879-0.669c-1.806-3.039-4.072-2.21-6.832-1.432
	c-7.33,2.067-14.437,1.82-20.539-3.599c-1.096-0.973-2.193-1.943-3.289-2.917l-0.219,0.063l0.118-0.168
	c-0.34-0.161-0.682-0.322-1.021-0.483c-1.967,0.036-3.936,0.04-5.9,0.123c-0.942,0.039-2.27-0.11-2.473,1.069
	c-1.229,7.173-6.627,5.444-11.207,5.259c-1.385-0.058-3.018,0.438-4.188-0.882c-1.822-0.573-2.384-2.219-3.14-3.696
	c-7.125-0.044-14.25-0.104-21.375-0.112c-0.803-0.001-2.043-0.006-2.342,0.463c-4.596,7.206-11.076,3.497-16.986,3.047
	c-0.807,0.065-1.606,0.113-2.162-0.654c-1.655-0.634-2.311-2.12-3.026-3.553c-6.695-0.897-13.39-1.793-20.083-2.687
	c-0.736,2.212-2.048,3.899-4.559,3.83c-4.592-0.128-9.242,0.528-13.755-0.876c-1.215,0.055-2.104-0.366-2.404-1.646
	c-0.713-1.507-1.43-3.021-2.146-4.533c-6.658-2.627-14.077-2.389-20.605-5.492c-1.116-0.53-1.929-0.021-2.555,0.854
	c-3.057,4.268-7.078,3.681-11.149,2.072c-3.044-1.202-6.433-1.7-8.958-4.06c-0.302-0.268-0.603-0.533-0.902-0.8
	c-2.084-1.324-3.18-3.301-3.721-5.643c-6.538-3.186-13.074-6.364-19.612-9.541c-2.084-1.013-3.767,1.003-5.748,0.77
	c-8.395,2.696-15.814,0.927-22.355-4.878c-1.273-0.075-1.868-1.017-2.474-1.942c-1.655-1.045-3.437-1.976-3.843-4.174
	c-5.365-2.807-10.01-6.539-14.11-10.974c-0.741,0.15-1.482,0.302-2.224,0.453c3.041,5.082,6.277,10.058,8.443,15.613
	c2.866,5.276-0.631,15.962-5.904,18.057c-1.813,0.722-2.588-0.791-2.842-1.841c-2.551-10.534-10.625-17.964-15.205-27.34
	c-2.053-3.322-4.106-6.646-6.159-9.967c-3.512-1.025-4.119-3.69-5.169-6.94c-1.857-5.755-0.008-10.789,1.063-16.077
	c0.207-1.022,1.205-0.938,2.001-1.046c0.023-0.792,0.295-1.642,0.001-2.359c0.448-0.275,0.879-0.57,1.27-0.897
	c-10.25-11-9.375-15.75-8.875-19.625c-7.75-7.25-7.125-11.875-7.5-17.25c-6.5-5-5.75-6.125-9.125-17.875c-5-7.125-6.375-12-7.5-17
	c-14.875-18.25-6.875-28.75-3.75-34c18-21.125,29.625-1.75,31.25-3.25s1-15.875,1-15.875C252.866,517.75,250.035,547,250.035,547
	s2.333,8,4.167,19c3.333,6.5,5.833,15.833,5.833,15.833s1.667,2.834,5.5,17c5.667,8.333,5.333,17.834,5.333,17.834l7.667,15
	l12.167,17.166c0,0,7.167,8.834,21,20.5c10,14.833,49.333,26.833,67.5,29.667c10.5,1.5,101,17,160.167-7.334
	c68.334-38.666,87.333-86.166,87-90.833s6.333-7.333,6.333-7.333s9.834-5,22.667-8.5c7.244-0.57,11.531,2.22,14.027,5.223
	c0.084,0.399,0.205,0.8,0.401,1.203c0.326,0.376,0.789,0.7,0.955,1.138c2.045,5.391-1.777,19.854-6.227,23.695
	c-0.695,1.839-2.466,2.256-3.979,3.015c0.205,1.049-0.805,1.341-1.242,1.988c-0.028,1.076-0.059,2.151-0.088,3.228
	c-0.084,0.409-0.166,0.818-0.25,1.229c0.137,0.307,0.068,0.556-0.207,0.745c-0.043,2.495-0.676,4.805-2.143,6.854l-0.012,0.029
	c0.034,0.853-0.271,1.521-1.041,1.94c-0.515,2.351-2.533,3.075-4.349,4.021c-0.215,0.312-0.43,0.62-0.645,0.932L650.544,640.26z"/>
<path fill="#FDB714" d="M129.785,453.291c-1.104,1.867-4.775,2.819-2.143,6.018c3.494,2.232,6.092,5.857,10.455,6.744
	c0.755,0.578,1.419,1.232,2.05,1.914c-2.423-4.97-6.266-10.307-10.841-16.137C129.466,452.317,129.625,452.805,129.785,453.291z
	 M152.554,484.397c7.022,11.362,12.613,23.488,18.779,35.309c2.337,4.481,4.22,9.281,8.181,12.724c2.84-1.812,5.316-4.02,5.02-6.096
	C183.867,521.668,152.554,484.397,152.554,484.397z M70.921,378.313c-0.613,3.858-2.759,8.779,1.067,11.766
	c9.698,7.571,17.829,17.093,28.734,23.145l-0.009,0.001c0.291,0.973,0.853,1.7,1.838,2.051c0.408,0.452,0.816,0.905,1.223,1.358
	c-7.952-13.933-21.541-29.382-32.95-43.002C71.181,375.052,71.199,376.563,70.921,378.313z M362.534,350l-2.167-7.667l-0.167-2.5
	l-6.667-1.167l-6.833,7.667c0,0-5.667,7.167-9,8.667c-3.167,3.333-10.167,11.167-8,14.667c2.833,3.833,7,3.667,7,3.667
	s0.5,3.167,8.5-6.5C354.034,359.5,362.534,350,362.534,350z M313.701,401.167c0,0-3.833-7-1.333-11.5c0,0-29.833,20.5-30.5,25
	c3.833,7.167,5.833,9.667,10.5,6.667C297.868,415.834,313.701,401.167,313.701,401.167z M288.089,376.367
	c-1.366,1.428-16.257,16.962-23.646,23.482c-3.884-2.594-3.517-5.641-2.659-7.726c-3.125-1.125-3.625-6-4.625-9.125
	c-2.625-1.375-3-5.5-3-8.125c-4.125-1.125-3.75-4.375-5-8.125c-4.75-0.125-5.25-2.75-5.25-2.75l23.208-27l1.41,1.925
	c1.468,2.533,2.396,6.548-1.41,11.242c3.75,5.667,5.667,9.167,5.667,9.167l7,10.25c0,0,6.583,1.667,6.75,6.667
	C287.391,376.801,287.885,376.543,288.089,376.367z M328.784,318.583c0,0-5.917-11.917-6.833-14.75
	c-0.139-4.356-3.139-9.503-4.158-11.134l-19.614,15.55h0.272c-2.833,2.083,2.5,3.667,3.417,3.75c-1.167,4.083,1.5,5.083,3.25,7.083
	c-0.583,3.5,2,6.75,3.417,8.167c-1.667,3.917,1.5,6.083,2.667,9.333c-1,3.75,3.25,7.667,3.25,7.667s-0.052,1.351,1.615,4.016
	c13.3-5.107,22.186-19.008,22.186-19.008l-0.001-0.001c-0.354,0.288-0.656,0.518-0.883,0.661
	C335.118,328.5,328.784,318.583,328.784,318.583z M209.534,298.167l-5.663-7.963c-5.156,5.977-23.817,27.763-28.702,35.58
	l6.198,6.216L209.534,298.167z M287.948,231.056c-0.609-0.42-0.906-1.245-0.987-2.008c12.207-9.314,34.713-26.718,43.619-35.117
	l7.672,7.569l-4.767,5.559c-5.679,2.248-25.209,10.397-41.859,22.313L287.948,231.056z M98.697,485.331
	c-1.078-4.905-2.701-9.615-5.031-14.072l0.061,0.051c-2.248-9.507-6.24-18.425-9.439-27.606c-2.637-7.572-4.495-15.46-8.51-22.519
	c0,0,0.127,0.042,0.125,0.041c-1.968-6.384-3.091-13.043-6.213-19.051c-3.438-12.064-8.623-23.476-13.073-35.164
	c-3.271-8.589-7.828-16.673-10.039-25.671c0.279-0.01,0.56-0.02,0.839-0.029c-9.329-13.856-22.037-41.905-26.854-52.818
	c-0.451,2.778,0.223,5.367,1.373,7.876c-0.064,7.651-0.031,15.305-0.23,22.953c-0.104,3.913,0.76,7.425,2.294,11.05
	c9.578,22.624,20.203,44.81,28.616,67.922c12.379,34.009,24.715,68.033,37.098,102.041c0.422,1.157,0.692,3.555,1.932,2.965
	c3.357-1.598,8.161-0.403,10.044-4.925c1.747-5.012-1.41-8.886-3.042-13.113L98.697,485.331z M338.534,131.25
	c2.25,19.75,15,28.5,15,28.5s5.5-2.5,10.25-5c-6.5,0-13.75-29.25-13.75-29.25s-4-6.25-10.75-8.25c-12.25,5-20.25-14.5-20.25-14.5
	s-1.5-0.5-3.5,6C326.784,129,333.034,130,338.534,131.25z M155.202,133.942c0.5,10.058,0.5,15.557,7.333,12.224
	c4.333-2.167,7-3.5,7-3.5V115c0,0,2.778-4.732,5.129-6.59c-2.306-2.436-4.853-3.652-8.086-1.379
	c-2.636,0.955-5.224,2.083-7.918,2.825c-4.458,1.229-5.72,4.017-4.529,8.249c-0.146,0.244-0.292,0.488-0.437,0.731
	C154.351,122.743,155.109,128.366,155.202,133.942z M48.101,206.133l1.934,0.2c0,0-1.166-6.5,7.667-8.667
	c6.333-0.167,20,1.5,22.833,10.833c0.333,5.5,4.166,12.167,5.917,14c0,0,4.417-1.167,3.917-9.833
	c3.167-4.167,4.667-3.667,1.167-14.167c0.282-6.627-1.706-22.2-16.353-28.756c-5.789-0.593-9.938,2.905-13.633,7.54
	c-1.924,2.072-0.031,3.996,0.234,5.982c-7.352-0.776-8.809,5.316-11.551,9.911c-4.226,3.605-3.359,7.866-1.576,12.245
	C48.459,205.665,48.288,205.896,48.101,206.133z M84.966,165.3c0,0,9.542,3.188,8.582,19.866c0.486,6.667,0.486,13.333,4.986,8.333
	c4.333-2,7.833-5.167,7.833-5.167s1.833-8.833,1.167-14.833c-2.094-5.891-3.387-12.398-9.085-18.795
	c-0.61-0.063-1.221-0.125-1.831-0.188c-1.916-3.153-4.092-3.25-6.738-0.77c-2.026,1.899-4.26,3.576-6.401,5.351l-0.089,0.061
	c-1.182,0.65-0.961,1.431-0.213,2.262C83.774,162.714,84.371,164.007,84.966,165.3z M131.035,156.579
	c2.333,7.087,4.5,8.587,6.333,5.421c3.167-2,7.667-2.333,8-4.167c0.667-3.167-0.333-21.5-2.5-28.5
	c1.031-2.373,3.529-5.125,5.285-6.881c-2.456-1.08-4.464-3.59-7.644-2.358c-6.135,2.885-13.734,4.516-13.111,13.191
	C129.02,138.259,131.138,146.692,131.035,156.579z M234.368,115.333c7.333,0.167,13.333,0,13.333,0s-1.667-26.333,13.333-31
	c1.833-2.5-2.5,23.833-1.333,26.833c8.333-0.667,12.833-0.5,12.833-0.5s2.5-29.167,14.667-32c2.167,1.167,3.666,9.333,2.333,17.5
	c-1.667,7-1.667,9.667-1.667,9.667L301.7,105.5c0,0,2.376-24.376,2.355-29.439c-4.884-6.516-11.383-3.576-17.563-2.503
	c-0.906-0.031-1.811-0.063-2.717-0.094c-7.531-0.123-15.422-1.294-20.135,6.858c-0.92-0.409-1.84-0.818-2.76-1.229
	c-5.873-1.056-11.666,0.263-17.473,0.733c-2.008,0.163-3.451,1.702-4.049,3.852c-0.289,1.04-0.392,2.181-0.88,3.153
	C236.176,96.011,232.77,111.224,234.368,115.333z M183.035,132.167c3.833,0.667,12.167-0.921,12.167-0.921
	s-5.254-26.403,8.828-35.925c-1.296-1.492-2.773-2.601-5.126-1.873c-0.658-0.069-1.203,0.06-1.402,0.797l0.012-0.053
	c-5.85,0.711-11.982,1.008-14.922,5.983C181.742,109.761,180.205,130.88,183.035,132.167z M220.035,120.833
	c0,0,1.667-24.834,12.5-31.167c1.355-0.561,2.292-1.235,2.945-1.936c-0.999-1.22-2.23-2.125-3.81-2.558
	c-0.778-0.824-1.575-0.856-2.393-0.059c-0.402,0.079-0.804,0.157-1.206,0.235c-1.984,0.028-3.969,0.039-5.951,0.087
	c-8.007,0.198-9.263,0.937-11.629,8.081c-1.575,5.598-3.076,14.165-3.957,27.316C214.368,121.833,220.035,120.833,220.035,120.833z
	 M80.201,245c1.833-6,3.833-18.833-18.167-29.833c-6.5,1.333-13,3.833-13.333,12.5c2.333,1.5,18.667-1.834,26.833,20.833
	c1.333,5.167,3.667,11.5,6.167,12.167s21.167,3.667,35.667,25.167l6.833-6C124.201,279.833,116.201,250.333,80.201,245z
	 M117.74,138.846c-3.185-3.096-3.801-2.47-10.564,1.504c-4.327,2.542-4.588,4.92-1.449,8.331c-0.101,0.181-0.176,0.373-0.251,0.564
	c1.973,2.623,4.652,8.409,5.56,20.922c0.833,6.167,2.5,9.5,3.5,9s8.833-5.5,8.833-5.5l2.167-1.293c0,0,1.167-14.207-6-27.707
	C118.63,142.211,118.079,140.288,117.74,138.846z M389.784,272.5c-1.25,0-1.5-21-1.75-30.25c-2.5-9.75-13-2.25-13-2.25
	c2.75,32.25,4.25,32.75,7.375,37.25C383.534,275,391.034,272.5,389.784,272.5z M209.659,364.25c0,0-1.5,8,6.625,13.25
	c7,6.25,20.5,15.5,20.5,26.375c1.875,2.625,3.625,6.654,6.375-1.735C243.273,392.212,242.284,370.5,209.659,364.25z"/>
<path fill="#FBDF8F" d="M42.442,248.266v7.479c-0.241-1.074-0.241-1.077-0.241-1.077s-14.06-2.5-21.78,6.833
	c-2.72-1.833,0-4.167,0-4.167s6.614-12.5,21.947-8C42.4,249.003,42.422,248.642,42.442,248.266z M377.659,78.375
	c-12.968-2.841-13.734,2.202-15.921,6.417l7.332,0.542C369.482,82.352,373.032,80.323,377.659,78.375z M496.518,92.656
	c-2.55-1.387-5.436-1.737-8.349-2c-3.216,0.726-6.421,1.993-8.369,3.218l6.063,2.454C487.144,94.453,492.498,93.404,496.518,92.656z
	 M632.416,136.137c-5.007-3.724-12.11-8.933-21.007-2.762l4.75,4.375C619.053,136.14,627.63,133.434,632.416,136.137z
	 M766.745,222.173l0.08-0.055c-0.825-2.478-2.129-4.541-3.864-6.229c-3.874-2.555-8.806-4.235-14.927-3.555l3,7.167
	c0,0,8.942-1.128,16.657,3.393C767.621,222.499,767.349,222.231,766.745,222.173z"/>
<path fill="#FBDF8F" d="M216.034,525.001l-8.5,5c0,0-19.833-32-26.667-39c-9-11.167-39.667-53.167-39.667-53.167L112.534,395
	l-13-18.5c0,0-24.333-33.333-31.5-51.333c-7.667-16.167-16.5-37.333-16.5-37.333s-6.667-14.333-6.833-22
	c-1.354-6.051-1.975-8.819-2.259-10.09v-7.479c0.382-7.392-1.032-22.769,22.759-16.266c-4.833,1.5-18.666-0.833-12.333,27.167
	c2.833,13.667,4,22.5,4,22.5L67.534,301.5l11,25.167c0,0,19.5,39,30.167,49.833c9.833,12.667,27.667,40.833,27.667,40.833
	L159.034,452l19,25.833L197.07,502l14.964,19.834L216.034,525.001z M448.784,318.625h-3.5L443.347,319c0,0,0.25-0.719,1.595-2.406
	c2.094-4.5,0.344-9.469,0.344-9.469l-1.125-4.75c0,0,0.75-13.125,1-25.75c1.375-17.5,0.375-31.5-0.625-46.625
	c-4.25-13.25-5.649-38.375-5.649-38.375C431.61,127,428.659,130.75,422.784,119.75c-21.875-29.125-45.625-33.125-53.75-34.375
	c0.006-0.081,0.023,0.039,0.036-0.041l-7.332-0.542c-0.026,0.051-0.053-0.093-0.079-0.042c-0.138,0.005-0.275,0.011-0.412,0.017
	c-27.655,1.125-21.873,2.875-28.838,6.358c-10.75,8.625-6.375,26.25-2.875,44.875c5.625,23.25,14,26.125,15.5,30.333
	s7.632,17.456,9.116,22.575c1.483,5.119,4.509,28.591,4.884,33.841c0.375,3.25,3.75,16.375,3.75,16.375s1.875,8.625,1.625,11.125
	s0.625,17.25,2,30c1.5,19.125,2.958,25.083,4.375,19.875c2.625-9.125-0.375-21.375-1.375-28c-1.625-4.375-1.375-15.625-1.5-22.625
	c-1-6.5-2.375-12.5-3.375-15.375c-1-2-2.25-12.5-2.25-12.5S360.159,207.5,358.659,198c-6-28.625-15.5-42.5-18-46.375
	c0-2.875-2-8.5-5.375-18c-13.75-30.875,0.75-38.875,12.875-43.5c56.75-0.125,71.5,37,75.125,44.625
	c2.375,0.75,9.625,42.411,9.625,42.411L435.034,191c0,0,7.375,41.5,7.625,42.875s0.25,13.875,0.25,13.875s-2.875,38.875-2.875,39.25
	s-1.149,24.25-1.149,24.25s-0.079,3.413,0,5.375v2.125c0.352,3.375,3.274,4.208,5.524,4.625
	C450.742,322.25,448.784,318.625,448.784,318.625z M529.534,141c-9.375-26-39.5-42.5-43.5-44.625
	c0.028-0.051-0.128-0.017-0.094-0.066l-6.063-2.454c-0.054,0.034,0.083-0.014,0.031,0.02c-1.846-0.791-12.585-3.435-18.802-4.936
	c-2.373-0.181-4.45,0.822-6.378,2.42c-6.119,3.331-10.687,7.834-11.704,15.016c2.968-4.179,7.226-8.851,11.759-11.501
	c17.125-1.25,25.5,8.375,39.75,17c22.875,15.5,25.625,28.75,30.25,42.5c4.125,10.25,5.375,38.875,5.375,48.125
	c-2.25,5.5-6.875,46.25-6.875,46.25l-4.25,41.375c0,0-5.125,39-7.625,51.5c-2.625,14.5-0.375,12.25,2,12.75
	c-3.125,1.5-3.25,2-2.75,8.696c6.375,10.446,11.5,1.929,12.625-0.696c-5.875,1.625-5.875,0.125-6.625-1.625
	c5-8.875,1.125-10.75,0.75-11l1.75-29.75c0,0,5.125-39.25,6.75-55.5c1.625-22.75,6.625-41,8.625-52.5
	C542.034,183.375,534.909,159.375,529.534,141z M641.409,173.25c-5.125-11.5-8.465-19.86-25.25-35.5c0.082-0.05-0.094,0.052,0,0
	l-4.75-4.375c-0.171,0.119,0.173-0.127,0,0c-9.25-5.5-18.875-14.875-41.125-5.75c-10.25,8.125-16.5,24.375-17.25,39.125
	c-1.625,13.125-4.25,37.625-0.625,56.375c-0.25,11.5-0.207,39.542-7.374,58.208c-2.334,13.167-7.667,28-7.667,28
	s-5.833,19-6.333,22.667c-1.5,7-2.5,15.333-2.5,15.333l16-47.5l6-27.167c0,0,4.834-27.166,5-48.833c-1.167-13.833-1-33.333-1-33.333
	s-0.334-41.667,10.333-48.667c8-6.5,13.666-18.333,35.833-6c13.667,10.667,15.5,13.833,17.167,13.833s7.666,10.167,8.833,11.667
	l4.334,10c0,0,6,9.333,5.833,14c0.833,6,6.999,45.667-9.167,83.833c-4.833,18.667-15.499,48.667-15.499,48.667l-14.834,42.833
	c0,0-11.833,33.833-12.5,33.5c-1,3.167-5.167,10-5.167,10.667s-2.833,3.834-2.833,3.834s-6.167,4.5-6.5,9.333
	c-2.5,4.833-5.167,9-5.167,9s-2.499,4.833,1.334,10.5c2.333,2.5,3,2.167,6.5,1.167c0.833-1,2.374-2.917,2.374-2.917
	s-3.875,0-3.5-6.625c2.625-4.75,3.5-8.125,3.5-8.125l1.625-3.25c0,0,6.375-9.5,7.625-11.125s2.375-6.271,2.375-6.271l11.375-26.229
	l19.375-55.875l12.75-39.75l3.5-12.5l5.625-22.25l5.75-22.25C645.409,221.5,647.784,188.375,641.409,173.25z M757.109,236.834
	c-3.242-13-6.075-17.333-6.075-17.333l-3-7.167c0,0-3.483-8.254-13.678-13.694c-0.748-0.33-1.523-0.703-2.322-1.14
	c-3.541-2.778-18.429-3.373-22.191-3.479c-0.028,0.083-0.058,0.166-0.086,0.248c-6.795,1.065-13.475,2.391-18.291,7.988
	c-4.633,3.444-9.088,7.18-13.905,10.324c-6.355,8.645-14.434,21.239-24.359,39.586c-7.666,17.833-20.166,49-20.166,49l-11.167,32.5
	l-10,26.833l-12,28.5l-4.166,8.5c0,0-2.929,7.668-6.438,15.178c6.837-12.043,11.771-22.177,11.771-22.177l13.333-30.833l10.667-26
	L636.367,305l9.334-25.667l10.166-24c0,0,20.166-40.834,30.333-44.667c7-5.5,22-16.167,40.667-7.167
	c6.333,4.667,8.833,6.5,14.833,23.167c4.334,9.667,5.834,12.333,5.834,17.333s3.501,41.333-2.333,52.333
	c-2.667,14.333-6.334,38.5-12.334,49.167c-4,15.333-25.833,75.833-25.833,75.833l-11,34l-10.167,38.833l-16.166,44.5l-14.167,27.167
	l-8.167,16.333c0,0-9.833,15.667,8.167,1.167c2.167-5.5,3.333-6.333,8-14.333c4-8,15.666-34.833,15.666-34.833l15.669-48.167
	c0,0,11.997-40.334,14.331-45.667c2.334-7.5,13.167-33.667,13.167-33.667l9.167-26.5c0,0,19.334-54.5,19.667-57.667
	s6.667-21.833,5.833-37.667C758.034,268,759.685,251.001,757.109,236.834z"/>
<path fill="#FDB714" d="M558.284,474.625c0.5,3.125,3.875,15,8.125,1c4.25-7.875,7-10.125,7-10.125s0-7.5-4.875-13.375
	C568.534,452.125,553.409,463.25,558.284,474.625z M682.284,309.25c0,0-15,11-17.25,18.5c-4.25,6.5-11.5,26-11.5,28
	s-1.25,14-1.25,14l5,9.5c0,0-18.5,10.875-24.875,28.375c-3.125,8.5-10.125,25.25,1.875,31.25c-9.875,1.75-15.875,9.625-23,25.625
	s-2.375,23-1.125,25.75c0,0,3.25,17.125,8.125,7.25c0.75-12.75,2.625-32.625,16.5-42.875c2-1.75,8.625-5.75,3.625-15.375
	c1.75-7.875,2-17.75,7.75-24.5c5.75-9.375,11.375-18.625,15.625-20.875c2.25-0.625,3.375,2,3.375-15.5
	c2.375-17.625,4-30.875,18.875-48.625c2.375-7.5,3.125-10.125,3.125-10.125S689.784,315.125,682.284,309.25z M479.034,694.75
	c-0.773,6.508-3.541,21.825-9.069,28.828c0.399,0.432,0.893,0.784,1.554,0.992c1.171,1.318,2.804,0.824,4.188,0.882
	c3.918,0.159,8.425,1.428,10.419-2.691c0.172-0.446,0.348-0.912,0.528-1.403c0.099-0.36,0.188-0.744,0.26-1.163
	c0.057-0.327,0.205-0.546,0.402-0.7c2.368-6.867,5.089-17.1,5.719-29.16c-0.5-1.666-2.166-3.833-2.166-3.833
	S484.034,682.833,479.034,694.75z M528.701,682.667c-3-5.667-4.167-7.334-4.167-7.334s-10,7.166-10,8.5
	c0,1.259-0.585,26.264,14.478,44.904c0.603-0.007,1.253-0.22,1.936-0.533c2.815-1.297,5.692-2.462,8.545-3.683
	c0.658-0.479,0.911-1.071,1.008-1.707C537.146,718.226,526.883,702.385,528.701,682.667z M439.201,697
	c-2.366,8.631-7.41,20.979-14.642,26.076c0.279,0.213,0.59,0.399,0.954,0.54c0.556,0.769,1.355,0.721,2.162,0.655
	c5.617,0.428,11.749,3.793,16.289-2.063c2.658-4.757,5.646-11.333,6.902-18.543c2.5-7.666,2.666-13.333,2.666-13.333
	S441.701,686.333,439.201,697z M559.367,663.001c0,0-3.5-7.167-4.167-10.834c-6.334-2.5-21.5-34-24.666-40.5
	c-14.333-13.334-34.5-25-37.334-25c-8.667-9-31-8.666-40.166-8.5c-5.833,6.166-2.166,9.334,0,10.501
	c14.833-0.666,32.667,6.166,37.167,8.166s31.5,22.667,31.5,22.667s-0.167,1.167,0,3.5c9.5,24.833,26.166,38.5,26.166,38.5
	s0.333,1-1.167,2.833c-4.688,19.631,8.987,42.643,14.673,49.815c4.039,1.513,8.377-0.383,10.978-4.69
	c0.141-0.116,0.287-0.22,0.439-0.315c-2.89-4.053-8.731-16.786-11.923-24.476C557.2,677.168,559.367,663.001,559.367,663.001z
	 M606.867,623.001c-5.833-7-5.833-7-5.833-7l-7.333,5c0,0-3.69,39.788,34.483,52.896c4.337-1.401,6.883-5.525,9.514-9.519
	c1.306-0.844,0.937-2.022,0.731-3.247C627.412,658.919,607.109,651.043,606.867,623.001z M610.041,683.334
	c-0.03-0.047-0.058-0.092-0.085-0.138c-0.066-0.109-0.127-0.218-0.181-0.322c-0.025-0.049-0.053-0.099-0.074-0.146
	c-0.063-0.136-0.118-0.269-0.161-0.398c-5.157-4.181-14.521-15.129-22.131-42.578c-0.25-2.263-5.625-8.625-5.625-8.625
	s-22-21.5-23.125-39.375c-4.375-9.75-11.5-27.75-3.5-43.625c-2.125-5.625-4.5-10.875-0.125-35.125c-0.5-3.5,2-4.375-5-8.375
	c0,0-13.25,6.625-6.125,42.125c-4,4.125-9.5,27.875,5.125,47.375c0,0-4.375,13.125,12.5,31.875
	c7.375,9.125,6.625,11.125,13.375,14.125c-0.625,6.375-1.875,16,16.25,42.75c3.347,3.929,7.318,7.298,10.063,9.436
	c0.122-0.005,0.248-0.046,0.375-0.101c0.028-0.013,0.059-0.026,0.087-0.041c0.251-0.126,0.502-0.322,0.733-0.532
	c0.03-0.026,0.061-0.055,0.09-0.083c0.106-0.1,0.211-0.2,0.304-0.294c1.951-1.955,3.9-3.912,5.851-5.868
	c1.008-0.109,2.481-0.623,1.719-1.586C610.252,683.645,610.143,683.488,610.041,683.334z M327.201,660.5c0,0-1.833,1.5-10.667,9
	c-9.722,13.693-31.244,13.323-38.619,12.756c0.675,1.547,2.15,2.355,3.546,3.236c0.605,0.927,1.2,1.867,2.474,1.942
	c6.541,5.805,13.961,7.574,22.355,4.878c1.651,0.194,3.095-1.165,4.735-1.041c14.98-8.79,26.508-22.938,26.508-22.938L327.201,660.5
	z M311.034,648.833l-7.667-8.666c-19.167,17.667-17.167,12.5-26.833,16.5c-27.667,7-35.833-16.5-35.833-16.5h-3.076
	c-0.04,0.364-0.101,0.733-0.111,1.091c-0.796,0.108-1.794,0.022-2.001,1.046c-1.071,5.288-2.921,10.322-1.063,16.077
	c0.907,2.808,1.487,5.174,3.89,6.43c5.662,1.502,12.029-3.478,12.029-3.478s1.833,1.167,7.167,8.167
	c1.879,0.411,3.685,0.71,5.453,0.952c0.174-0.035,0.348-0.071,0.521-0.106c0.065,0.07,0.133,0.138,0.199,0.207
	C297.923,674.863,311.034,648.833,311.034,648.833z M362.749,679.494c-0.743,1.143-1.64,2.521-2.715,4.172
	c-9.03,14.109-19.813,19.882-25.835,22.141c0.354,0.332,0.736,0.645,1.173,0.922c0.301,0.266,0.602,0.531,0.902,0.799
	c2.525,2.358,5.914,2.856,8.958,4.06c3.229,1.274,6.423,1.897,9.132-0.021c8.153-8.776,16.819-21.541,19.836-26.484
	C375.166,678.081,363.563,679.394,362.749,679.494z M410.534,685.968c0,0-6.167-6.635-14.5,16.365
	c-4.161,5.39-9.876,10.885-15.261,14.42c0.305,0.644,0.61,1.29,0.914,1.933c0.301,1.28,1.189,1.701,2.404,1.646
	c4.512,1.404,9.163,0.748,13.755,0.876c0.915,0.025,1.667-0.188,2.293-0.569c4.046-6.292,11.285-18.253,13.062-25.889
	C415.034,689.833,415.079,686.188,410.534,685.968z M219.368,558.23c11.667-3.897,33.667-14.563,21.667-35.563
	c-4.667-7-5.333-4.333-7.5-6c2.667,4.166,8.5,23.296-17.667,29.064c-11.5,0.936-18.334,0.102-25.167-12.398
	C190.701,533.333,183.368,568.461,219.368,558.23z M318.409,584.75l4.375,7.375c0,0,2.625,4.375,7.625,1.25
	c2.875-3.25,2-6.875,2-6.875s-13.875-20.125-24.375-22.625c0,0-5.875,4.375-4.25,6.5S318.409,584.75,318.409,584.75z M236.701,570.5
	c5.167-0.333,20.833-4.604,21.333-12.219c-2.5-3.781-2.5-5.614-2.667-10.281c-0.667,0-1-2.834-3.667-2.167
	c0,0-4.5,18.667-49.667,14.167C204.368,564.333,207.034,572.167,236.701,570.5z M341.534,554.833l3.333-4.666v-6
	c0,0-19-16-26.167-20.167c-2.667-0.667-4-1.167-4-1.167v9.667l22,19.667L341.534,554.833z M235.868,604.333
	c10.167,0,30.949-0.334,35.641-14.667c-2.975-5-5.308-11.553-5.308-11.553s-12.333,17.886-40.333,10.553
	c-9.167-3.166-13-6.166-13-6.166S215.868,605.166,235.868,604.333z M242.201,638c16.333,0,33.833,0.832,44.333-17.834
	c0.5-2.833-5.333-10.5-5.333-10.5s-30.333,31.666-55.333,4C227.534,620.833,229.535,633,242.201,638z M650.367,614.167
	c-9.333,0.334-19.666,4.334-24.833-10.833c-1.667-4.667-8.75-17.167-12.125-18c0,0-8.374,2.167-8.208,7.5s-3,37.834,43.5,46.167
	c0.835,0.182,1.636,0.328,2.414,0.454c0.034-0.049,0.067-0.098,0.103-0.147c1.814-0.944,3.834-1.67,4.349-4.021
	c0.77-0.42,1.075-1.089,1.041-1.94l0.012-0.029c1.467-2.051,2.1-4.359,2.143-6.854c0.275-0.189,0.345-0.439,0.207-0.745
	c0.084-0.409,0.166-0.818,0.25-1.229c0.029-1.075,0.06-2.15,0.088-3.228c0.438-0.647,1.447-0.939,1.242-1.988
	c1.515-0.759,3.283-1.176,3.979-3.015c2.036-1.759,3.938-5.742,5.21-10.062C667.521,608.896,662.35,612.644,650.367,614.167z
	 M483.847,631.063c-5.688-0.813-33.688-2.25-33.688-2.25s-6,8.313-5.75,10.5c0.25,2.188,4.688,4.375,4.688,4.375l26.313,2.125
	l16.875,0.563l0.688-5.813c0,0-5.688-5.938-5.25-7.125C488.161,632.251,489.534,631.875,483.847,631.063z M382.784,560.125
	l-7.125,5.25c0,0-0.375,3,6.25,5.25c7.625,1.375,28.25,8.563,28.25,8.563s6.625,0.063,6.5-2.813c-1.25-3-1.875-6.719-1.875-6.719
	S395.159,560.125,382.784,560.125z M217.298,441.5c0,0,22.236,11.5,25.486,29.5c3.5,7,4.25,8,5.75,2.5c-1-7.25,0-9,0-9v-4.25
	c0,0-10.5-30.25-37-33.5c-0.25-14-11-44.5-40.75-48.25c-2.5-30.75-21-34.75-20.5-38.75c0,0-8-12.5-22.25-12.5
	c1.5,0.25-1.75,0-1.75,0s4.25,11.75,6.25,12.25s16.25,14.5,16.25,14.5s12.75,13,13.25,17.5c4.25,6.75,5.75,10,5.75,10l4.5,7.5
	c0,0,11.75,6.25,14.5,11c3.75,3.5,18.5,19.5,22,32.25C210.284,435.25,217.298,441.5,217.298,441.5z M402.034,634.875
	c5.125-0.5,5.125-1.5,5.125-1.5l-1.25-10.466c0,0-18.125-6.159-26.125-9.659c-7.5-1.125-9.375-2.375-9.375-2.375
	s-5.625,7.5-5.25,8.625s-0.75,4.125,11.625,6.5C389.409,630,396.034,635.625,402.034,634.875z M276.034,455.75
	c0,0-0.083,8,5.833,19.5c3.417,12,7.167,15.25,7.167,15.25s2.343,0,2.046-12C287.284,471,284.784,461,276.034,455.75z
	 M462.701,175.333l-0.667-3.833c0,0-0.5-1.5-5.833-5.833c-9.833,1.167-25.167-7.5-25.167-7.5s21.5-17.833,27-23.833
	c0.666-4.667-6.833-9.167-9.666-10c-1.666,0.667-21.167,17.5-29.334,25.5c-3.5,0.5-15.5-16.667-15.5-16.667l-8.5-4.833
	c0.333,19.167,14.667,31.417,14.667,31.417l-4.167,3.417l8.167,8.167c0,0,3.667-1.5,7.558-3.531
	C443.201,181.833,462.701,175.333,462.701,175.333z M510.534,183.417l-7.667,2.75c0,0,1,1.333,5,7.5
	c5.333,6.167,8.167,4.167,13.834,2.333c9.834,11,30.833,20.667,39.833,22c8.167-3.167,6.167-7,6.167-7s-0.5-1.5-5.167-6.5
	c-10.667-0.333-17.833-8.167-26.667-13.167c8.666-1.667,34.334-15.333,34.334-15.333l1.166-5c0,0-2.333-4.833-5.333-7.083
	c-1.667-2.25-8.667,1.75-8.667,1.75s-23,10.833-34.166,13.333c-5-1.833-14.834-23.833-14.834-23.833l-8-6.333
	c0,0-0.166,1.333-3.666,4.667C495.035,169.5,510.534,183.417,510.534,183.417z M694.868,220.333l-3.5-5.5c0,0-33.834,4.667-44,7.333
	c-10.166,3.167-23.333,7-23.333,7s-5.667-7.333-5.167-26c-3.166-7-8.333-9.667-8.333-9.667s-7.5,19.167-1.667,38.333
	c-6.333,2.167-6.333,5-6.333,5s0,10.333,4,13c6.666,0.333,10.333-1.667,10.333-1.667s11.001,20.333,40.667,27.667
	c3-2.833,5.833-11.167,5.833-11.167l-2.667-5.167c0,0-13.832,1.667-25.666-15.667c17.166-5.333,35-7,35.833-7.167
	s16.833,0.5,20.5-4.333C695.035,225.167,694.868,220.333,694.868,220.333z M634.45,139.503c1.859,1.909,3.484,4.048,5.235,6.063
	c4.564,0.575,7.166,3.831,9.322,7.316c3.485,5.634,5.746,11.731,6.336,18.332C648.604,156.409,637.146,142.642,634.45,139.503z
	 M709.85,194h13.686c0,0,4.999-10.167,13.333-4.5c2.53,1.339,4.859,2.691,6.896,3.933c-0.245-0.361-0.49-0.721-0.736-1.082
	c-2.24-3.921-4.205-8.121-9.295-9.146c-9.675-3.971-17.207-2.153-21.146,5.099c0.002-0.002,0.006-0.004,0.008-0.006l-0.016,0.019
	c0.002-0.004,0.004-0.008,0.008-0.013c-1.494,0.912-1.967,2.371-2.146,3.991C710.243,192.864,710.047,193.432,709.85,194z
	 M326.034,89c1.667-1.333,7.833-1.167,7.833-1.167L350.2,81.5c0,0-0.316-0.331-0.894-0.85c-0.621,0.124-1.24,0.249-1.861,0.373
	c-2.489-2.978-5.863-4.074-9.532-4.881c-5.729-1.261-11.347,0.105-17.011,0.288c-0.565,0.336-1.133,0.696-1.702,1.097
	c-1.167,8.141-0.667,14.141-0.667,14.141S324.367,90.333,326.034,89z M417.147,98.293c0.024-0.482-0.162-0.656-0.624-0.427
	c-0.081-0.212-0.229-0.357-0.441-0.436c0.137-0.552-0.04-0.747-0.589-0.515c-0.082-0.228-0.238-0.376-0.471-0.445
	c0.13-0.608,0.023-0.809-0.499-0.29c-0.204-0.243-0.448-0.434-0.733-0.573c0.274-2.376-1.697-3.447-2.976-4.803
	c-13.536-14.364-33.408-19.049-52.127-12.605c9.325-1.363,32.24-1.48,59.702,21.699C417.973,99.366,417.557,98.832,417.147,98.293z
	 M506.564,97.719c9.457,6.479,23.823,17.914,33.719,33.148c-1.17-2.958-2.813-5.739-4.163-8.601
	C530.087,109.481,520.982,100.271,506.564,97.719z"/>
</svg>
