<?xml version="1.0" encoding="utf-8"?>
<!-- Generator: Adobe Illustrator 16.0.0, SVG Export Plug-In . SVG Version: 6.00 Build 0)  -->
<!DOCTYPE svg PUBLIC "-//W3C//DTD SVG 1.1//EN" "http://www.w3.org/Graphics/SVG/1.1/DTD/svg11.dtd">
<svg version="1.1" id="Layer_2" xmlns="http://www.w3.org/2000/svg" xmlns:xlink="http://www.w3.org/1999/xlink" x="0px" y="0px"
	 width="800px" height="800px" viewBox="0 0 800 800" enable-background="new 0 0 800 800" xml:space="preserve">
<image display="none" overflow="visible" enable-background="new    " width="800" height="800" xlink:href="../images/a1-front.png"  transform="matrix(1 0 0 1 0 1.6797)">
</image>
<g id="Layer_3">
	<path fill="#232121" d="M156.666,552.226c-15.491,10.986-14.632,9.681-15.743,6.771c0.048,1.788,1.127,3.396,3.256,4.82
		c1.022,1.301,2.004,2.509,1.908,4.411c-0.238,4.671,2.111,7.337,6.656,8.529c5.608,1.476,11.121,3.311,16.675,4.987
		c2.714,2.062,6.536,2.486,8.453,5.725c-0.087,0.677-0.174,1.354-0.262,2.027c-3.287,1.985-2.743,3.542,0.347,5.271
		c2.879,1.613,5.602,3.532,8.274,5.479c4.406,3.212,8.4,6.994,13.286,9.537c1.666,2.555,3.331,5.107,4.997,7.664
		c0.342,0.34,0.685,0.679,1.027,1.019c0.434,3.696,2.222,6.854,3.985,10.023c1.765,6.194,4.24,12.149,5.369,18.58
		c1.034,5.884,2.323,11.729,3.715,17.548c-3.634-47.309-34.442-76.785-34.776-77.296
		C164.333,586.479,157.333,557.001,156.666,552.226z"/>
	<path fill="#232121" d="M596,378.833c-0.501-21.333-13.499-30.667-32.833-49c-14-10.333-22.667-31.167-30.334-40.331
		c-6.334-7.664-32-22.669-32-22.669L498.688,251c0,0-1.188-18-4.188-39.5c-0.5-16-1.5-45-3.5-57.5c-13-42.5-9.5-41-7-68
		c3.371-12.081-1.309-26.214-6.056-36.278c-0.448,0.076-0.896,0.147-1.344,0.212c-2.099-0.504-4.253-0.837-6.277-1.543
		c-6-2.091-11.275-0.878-15.506,3.692c-3.024,3.268-5.129,3.034-7.94-0.287c-6.787-8.018-15.72-9.733-25.42-7.149
		c-14.596,3.89-26.265,12.451-35.973,23.844c-7.34,5.025-14.198,10.554-19.021,18.208c-2.995,0.824-3.959-1.85-5.579-3.311
		c-1.935-1.744-2.783-4.553-5.438-5.614c-0.124-0.184-0.286-0.228-0.485-0.133c-2.896-5.044-7.391-5.906-12.629-4.815
		c-0.334,0.126-0.668,0.251-1.002,0.376c-0.584,0.195-1.168,0.39-1.752,0.585c-2.736-0.584-5.452-1.291-8.211-1.729
		c-15.237-2.422-27.865,2.408-38.066,13.86c-0.521,0.498-1.042,0.996-1.562,1.493c-1.425,0.668-2.72,1.47-3.24,3.087
		c-0.659,0.23-1.018,0.625-0.747,1.364c-1.283,0.464-2.445,1.072-2.961,2.459c-4.409,1.384-7.448,4.688-10.72,7.661
		c-1.563,1.009-3.547,1.512-4.255,3.546c-2.461,1.321-4.363,3.188-5.588,5.718c-0.264,0.386-0.527,0.771-0.791,1.157
		c-1.816,0.717-2.453,2.435-3.4,3.918c-1.09,1.707-1.723,3.997-4.414,3.931c-1.874-2.307-4.479-1.827-6.78-1.388
		c-4.37,0.835-8.158,3.155-11.882,5.508c-4.16,1.034-8.316,2.081-12.479,3.1c-11.224,2.747-19.856,13.405-19.625,24.979
		c0.11,5.531-1.305,10.47-3.617,15.301c-2.079,4.344-4.621,8.515-6.224,13.023c-1.746,4.913-5.543,4.17-9.022,3.953
		c-3.322-0.207-6.793-0.223-7.743-5.119c-1.159-5.97-4.841-7.997-10.86-7.201c-0.965-0.012-1.931-0.022-2.896-0.033
		c-1.693-0.172-2.805,0.698-3.693,2.018c-1.797,2.671-1.982,17.647,0.425,19.428c2.583,1.91,2.602,4.354,3.216,6.828
		c-4.282,6.35-6.479,13.304-6.896,21.001c-0.528,9.716,2.541,19.146,1.889,28.837c-1.971,5.954,0.167,12.113-0.899,18.113
		c-0.695,0.176-1.391,0.352-2.086,0.528c-0.488-0.304-0.661-0.125-0.61,0.397c-0.291,0.109-0.466,0.317-0.523,0.623
		c-2.19,1.515-1.687,3.397-0.728,5.342c0.293,1.664,0.587,3.327,0.881,4.991c-0.199,1.735-0.159,3.45,0.44,5.116
		c-0.406,1.68,0.159,3.251,0.536,4.844c-0.827,1.396-0.827,2.752,0.203,4.056c0.144,1.302,0.288,2.603,0.432,3.904
		c-0.635,4.067-0.777,8.134,0.048,12.195c-0.652,2.244-0.538,4.519-0.268,6.8c-0.856,1.952,0.395,4.499-1.512,6.101
		c-7.271,6.104-3.438,14.481-4.375,21.839c-0.247,1.942,1.584,4.376,3.748,4.824c3.753,0.778,3.997,3.358,4.171,6.238
		c-2.48,16.338-0.626,32.76-0.941,49.141c-0.367,3.728-0.611,7.454,0.064,11.176c-0.041,1.907-0.081,3.813-0.122,5.721
		c0.01,0.714,0.021,1.426,0.032,2.138c-0.246,2.344-0.513,4.688,0.306,6.984c-0.593,1.979-0.618,3.956,0.029,5.933
		c-0.592,4.342-0.48,8.677,0.125,13.008c-0.029,6.944-0.058,13.889-0.087,20.834c-0.581,1.75-0.396,3.475,0.179,5.186
		c0.033,5.445,0.066,10.893,0.1,16.337c-2.186,0.516-1.958-1.287-2.189-2.431c-0.723-3.573-1.134-7.218-1.994-10.754
		c-3.822-15.724-2.365-32.462-9.16-47.592c-0.057-0.489-0.201-0.896-0.402-1.227c-0.273,1.087-0.452,1.773-0.452,1.773
		S143.25,498,150,520.25c-0.933,0.813-2.478,1.771-4.328,2.78c-0.03,0.355-0.057,0.715-0.094,1.07
		c-0.983,2.386-2.662,4.514-1.93,7.427c1.958,7.793,0.555,15.468-1.073,23.111c-1.138,1.558-1.688,3.01-1.651,4.358
		c29.924-20.668,42.909-21.165,42.909-21.165l0.259,3.333l-8.425,2.166l-14.5,8.896c0,0,6.333,16.771,8,21.938
		c-0.167,3.166,4,6,12.833,10.5C174.5,580.499,170.066,568,170.066,568s12.101,3.166,18.934,5c7.167-1.833,6,1,4.833,2.5
		c-6.5,2.834-17-0.334-17-0.334s12.5,11,16.333,16c4,5.833,5.333,8.5,5.333,8.5s12.5,20,14.667,27.5
		c2.667,3.833,9.833,35.667,9.833,35.667s2,14.167,4.26,16.354c2.976-5.761,1.723-11.818,1.267-17.818
		c1.618-0.158,2.17,1.279,3.136,2.097c0.262,0.384,0.524,0.771,0.786,1.152c2.391,3.076,3.111,7.165,6.022,9.926
		c3.701,5.987,10.313,7.118,16.09,9.642c6.036,2.695,9.343,8.533,14.328,12.439c1.208,2.805,3.001,5.165,5.374,7.087
		c2.041,4.593,5.171,8.005,10.239,9.186c1.745,0.404,2.841,1.504,3.888,2.813c4.521,5.654,13.911,5.601,18.067-0.104l0.167-0.118
		c0.588,0.025,0.882-0.257,0.889-0.844c2.005-1.66,2.126-3.807,1.566-6.122c2.589-0.578,1.95,2.297,3.279,3.063
		c-0.025,0.869,0.132,1.662,0.905,2.201c0.025,1.458,0.808,2.584,1.63,3.689c2.661,5.691,6.723,10.244,11.559,14.164
		c1.061,1.595,2.344,2.951,4.063,3.849c1.686,2.317,3.935,4.034,6.177,5.749c15.341,11.738,33.102,17.051,51.991,17.999
		c28.107,1.41,56.193,0.481,83.913-5.028c15.297-3.041,30.555-6.375,44.978-12.604c9.852-3.501,19.155-8.075,27.443-14.495
		c1.825-1.413,4.472-2.451,4.326-5.521c2.469-1.134,3.364-3.753,5.189-5.494c1.857-1.864,3.272-4.01,4.084-6.53
		c0,0-0.06,0.028-0.06,0.027c4.886-6.587,7.538-14.188,9.614-21.971c1.604-6.004,3.358-12.088,1.839-18.444
		c3.486-7.991,6.642-16.097,8.151-24.739c1.23-4.231,1.943-8.541,1.943-12.957c0.307-3.006,0.609-6.012,0.916-9.017
		c0.15-0.984,0.305-1.973,0.455-2.958c2.428-6.813,3.671-13.908,4.938-20.995c1.168-3.587,1.764-7.272,1.943-11.033
		c0.531-0.958,0.815-1.953,0.449-3.046c0.147-0.666,0.296-1.334,0.442-2c0.598-0.573,0.708-1.22,0.284-1.94
		c0.062-1.204,0.123-2.407,0.185-3.61c1.587-14.425,3.173-28.85,4.762-43.273c2.452-7.908,3.212-16.309,6.979-23.854
		c0.429-0.855-0.189-2.236-0.324-3.377c-1.023-4.564,2.346-7.87,3.401-11.838c1.075-0.746,0.933-1.934,1.098-3.01
		c-0.022,0.034-0.05,0.067-0.073,0.104c0.001,0.001,0.075-0.122,0.075-0.122c-0.001,0.008-0.001,0.015-0.002,0.021
		c2.123-2.999,4.638-5.855,3.58-10.004c0.021-1.007,0.038-2.017,0.06-3.022c-0.045-1.007-0.092-2.015-0.137-3.021
		c0.185-2.038,0.523-4.085-0.369-6.06c-0.103-6.021,0.203-12.081-1.544-17.962c0.057-1.658,0.11-3.313,0.166-4.974
		c1.317-1.183,2.594-2.396,3.128-4.159c0.993-0.045,1.988-0.089,2.983-0.134c1.047,5.305-0.106,10.577-0.331,15.854
		c-0.198,4.679,0.027,9.298,0.653,13.909c0.188,1.407,0.308,3.234,2.492,3.008c1.922-0.197,2.247-1.592,2.189-3.271
		c-0.095-2.822-0.224-5.655-0.085-8.474c0.402-8.126,0.782-16.323,3.58-24.027c2.287-6.298,1.915-10.051-2.745-14.641
		c0.513-2.543,0.909-5.114,1.577-7.615c0.462-1.729,0.839-3.362-1.129-4.212c-3.604-1.557-3.322-3.798-2.209-6.242
		C606.499,395.877,597.639,385.613,596,378.833z"/>
	<path fill="#232121" d="M641.628,433.015c-0.688,3.671,0.508,5.786,4.244,6.437c3.709,0.644,4.25-1.554,4.598-4.323
		c-2.543-2.045-5.244-4.245-8.037-6.562C642.169,430.05,641.906,431.533,641.628,433.015z"/>
	<path fill="#232121" d="M218.834,665.577c0.536,2.22,1.084,4.435,1.643,6.646c0.665,2.637,0.851,5.854,3.948,7.297
		c0.006-0.011,0.008-0.02,0.015-0.027l0.052,0.063c-0.023-0.011-0.043-0.021-0.067-0.033c-0.396,0.641-0.043,1.15,0.464,1.388
		c0.244,0.112,0.732-0.299,1.11-0.476c0.67-0.16,1.403-0.262,1.261-1.244C226.303,681.467,222.578,680.873,218.834,665.577z"/>
</g>
<path fill="#040507" d="M657.718,204.979c-2.059-14.612-5.249-29.013-8.271-43.443c1.644-5.265-1.445-10.482-0.389-15.598
	c1.376-6.648-0.288-11.467-6.44-14.546c-0.337-0.335-0.674-0.67-1.013-1.005c-0.623-2.704-2.027-4.346-5.087-3.743
	c-0.32-0.065-0.645-0.13-0.967-0.194c-0.664-2.668-2.608-4.023-5.021-4.902c-0.366-0.382-0.732-0.764-1.101-1.146
	c-0.186-1.967-0.209-3.925,0.445-5.824c1.768-5.13-2.99-5.561-5.542-7.114c-2.688-1.639-4.815-0.01-5.857,2.85
	c-3.364-2.338-5.551-5.764-8.136-8.819c0.021-0.475,0.037-0.948,0.059-1.422c1.521-4.571-1.984-6.443-4.722-8.673
	c-2.375-1.935-3.845,0.134-5.459,1.398c-4.854-0.752-7.438-4.335-9.962-7.994c1.053-4.977-1.595-7.636-5.738-9.598
	c-3.224-1.524-4.476,0.652-5.939,2.672c-5.188-1.22-9.67-4.079-14.462-6.217c-0.406-1.535,1.347-3.748-0.539-4.574
	c-2.954-1.295-6.168-3.563-9.385-2.194c-2.848,1.21-4.705,0.24-6.91-0.914c-8.077-4.228-16.165-8.435-24.273-12.602
	c-1.266-0.65-2.518-1.951-4.108-1.007c-3.197,1.894-6.481,1.294-9.584,0.126c-2.663-1.002-4.442-0.229-6.096,1.696
	c-0.597,0.056-1.19,0.112-1.788,0.169c-0.354-0.155-0.71-0.31-1.063-0.464l0.201-0.174l-0.147-0.222
	c-0.453-0.839-1.246-0.877-2.057-0.875c-6.946-4.496-14.119-1.882-21.243-0.774l0.611,2.904L483.25,57l-1.75,5.75
	c0,0,15.75-2.75,1.75,11.5c0.556,2.462,1.111,4.644,1.611,6.479c9.96,4.166,72.08,30.969,92.14,59.604c0.5,2.167,3.834,23.5-2.5,28
	c-31.592-22.934-64.557-48.902-75.077-51.06c1.863,3.35,3.933,11.971,4.326,33.477c2.972,10.152,8.99,29.25-12.877,40.545l2.21,3.23
	c3.304,2.35,5.604,4.642,5.604,4.642l18.646,16.5l16,13c0,0,17.833,14,21.333,23.5c7.482,9.651,8.334,9.167,8.334,9.167l2.5-10.833
	c0,0-11.167-21-19.167-25.667C545.5,217.167,550,213.501,550,213.501l4.833-5.167l12.333,10l12.667,16L584.167,246
	c0,0,6.473,2.316,7.5,5.5c2.666,2.833,11.499,9.333,11.666,15.333c-2.269,3.259-4.666,10.167-4.666,10.167l-2.891,13.664
	l-1.81,13.764l0.271,4.614l11.922,13.338l1.339-11.958l1.75-10.922l2.75-7.75l6,13.5l9.241,13.003l5.629,8.841
	c0,0,0.224-0.913,0.535-2.416c0.001-0.709,0.002-1.418,0.003-2.127c0.287-0.668,0.537-1.339,0.769-2.012
	c0.915-5.502,1.769-13.305,0.49-18.706c0.793-9.006-0.5-22-0.5-22l20.227-19.625c-0.435-1.454-1.058-2.824-2.173-3.976
	c-0.364-1.532-1.916-1.934-2.818-2.95c3.397-7.047,4.276-14.404,3.549-22.2c-0.981-10.483-2.333-20.826-6.388-30.64
	c1.393-0.788-1.189-4.569,2.646-3.519c0.826,3.415,1.225,7.011,4.043,9.585c0.674,1.724,2.202,3.037,3.734,2.518
	C658.574,208.489,657.914,206.378,657.718,204.979z"/>
<path fill="#FBE270" d="M535.712,563.421c18.378,9.92,22.956,22.913,27.456,34.246c9,19.166,8.5,38.334,8.666,52.667
	c8.5-21.5-4.166-57.5-4.166-57.5s-4-8.166-7.167-13.333c0-6.5-19.667-20.5-19.667-20.5l1-1.5c23,16,23.833,27.666,23.833,27.666
	s1.334,1.5,3.834,6c1.167,3.333,4.5,13.334,7.166,42.667c-0.667,25.833-8.166,30.5-7.833,26.5s1.5-23.833,0-31.833
	c-0.333-6.833-3.333-17.834-7.5-28.334c-5.667-26.334-27.552-34.499-27.552-34.499S533.782,565.668,535.712,563.421z M376,477.834
	c-0.167-3-0.667-6.667-2.167-9.834c0.833-1.167-0.667-7.833-2.667-11.5c1.75-4.139,0.167-11.166-0.167-14.666
	c0-2-1.167-31.001-1.667-37.167c-0.5-7-3.833-49.5-4.667-56.5c-1.667-9.833-1.833-45.333-1.833-45.333s1.333-4.167,0.333-9.5
	c5.667-26.5,15.333-32.833,24.167-40.333c11-8.833,34.5-4.833,34.5-4.833l10.5,4.833l0.834,1.667l10,8v3.167l8,6l-0.667,5.333
	l5.667,6.667l0.167,3l-0.5,4.167l2.666,5.5L458,303l3.834,7.333l-1,4.333l2,3.667l-1.167,6.167l3.667,7.5v5l2.666,6.167v4.667l2,5
	L469.834,358l1.5,8.057l-1.167,2.776l4.167,8.833v2.833l2.5,5.333c0,0,0.666,3.833,3.166,9.667c1.5-2.167,1-6.5-0.833-9.5
	c-0.333-2.667-0.333-5.833-2.833-9.833c-0.333-3.833-4.834-30.333-5.667-33.833c0.833-3.667-1.167-5.833-3-9.5
	c-3.333-25.167-7.333-39.667-9-46.833c-1.667-10.5-8.5-18-14.667-27.333c-18.167-21.5-42.166-14.167-47.5-12.5
	c-22.5,6-31,27.5-33.167,33.5c-3.167,1.167-4.333,27-4.333,27l3,42l1.167,15L364.833,386l2.333,42l2.333,33.834l1.833,7.166v2.334
	l3.5,7.333v4.167l3.833,5.666C379.328,486.671,378.167,481,376,477.834z M386,489.334l-6-10.5v-5.167L377.833,469v-30.166v-26.167
	l-1.5-10.988l-1.833-5.345l1.5-4.833l-1.5-5.167l1-4.167l-2.333-6l0.833-3.5l-2.667-9.5l-2-11L371.5,348l-3.667-7.5l1.333-3.5
	l-1.333-9l1.167-4.5l-1.167-8c0,0-0.833-40.625,16.667-54.5c4.125-3.375,8.25-3.5,8.25-3.5l12-4.375l2.875,1.75l10.625-0.75
	c0,0,16.375,8,17.625,13.75c5.375,5.125,9.125,7.375,9.875,13c4.25,5.375,6.125,9.75,4.25,12.75c1.875,4.75,6.25,27.75,5.5,32.375
	c3.125,7.875,5.25,21,5.375,23.5c1.875,5.125,6,16,5.125,22.25c2.5,4.875,4.25,5.375,3.25,12.75
	c2.875,4.125,3.375,6.75,2.875,10.125s4.75,3.75,2.125,10.125c3.625,3.375,4.375,12.25,1.5,15
	c-2.625-12.625-3.125-13.875-3.125-13.875l-11.75-44.75l-3-6.75l1-4.875l-3.25-5.375V338.5l-2.75-6.625l0.5-5.25l-2.875-6.375
	l1.125-4.625l-2.375-7.125l1-3.625l-3.5-7.5l1.5-4.375l-4.875-8.125l0.25-4.125l-9.375-9.125l-0.5-2.5l-13.125-9.625
	c0,0-19.75-5.75-35.75,3.875c-3.125,6.5-8.377,14.25-12.5,34.625c-0.5,4.875-3.5,33.5,1.5,50.625c0.875,10.25,3.625,32,4.625,40.875
	c1.875,14.5,3.375,44.625,2.625,61.875c0.125,6.75,0.75,14.875,0.75,15.375s4.5,18.75,4.5,19.125 M495.791,477.001
	c0,0-10.041-30.001-6.541-38.251c-0.5-10.75-0.74-26.25-0.74-26.25l3.643-18c0,0,2.682-13.5,3.641-17.5
	c0.959-14.75,3.709-57.25,3.709-57.25L502,321l2.5,2.5v7.25c0,0,5.75,1,5.75,9.25c4.25,7.25,8.75,17.75,8.75,17.75l4.5,5.25v5
	c0,0,5.75,3,6.5,8.5c2.75,5.5,3.25,7.5,3,9c3.5,1,4.75,2.5,5.5,7c3.75,3.25,7.75,5.107,4,9.179c5.5,1.321,7.25,5.571,6.75,8.571
	c3,1,10.678,10,21.339,22.75c0.411,8,0.661,8.25,6.911,14.75s12.25,13.5,23.625,3.25c1.25,4.125,1.376,10.999-1.624,12.833
	c-0.167,5.334-5.835,58.501-47.751,71.917c0.475-2.021,0.917-3.916,0.917-3.916s30.5-5.001,42.167-53.668
	c0,0-5.685,35.344-41.926,52.589c-0.074-4.089,1.759-4.922,1.759-4.922s27.334-6.667,42-60.333c-8.833,2-6.999,0.834-15.166-2
	s-15.334-17.5-17.334-20.667C552.25,430.75,536.5,409.25,527,391.25S507.75,353,507.75,353l-2,1.875c0,0,0.875,31.625-4.125,44.125
	c1,6.25,1.125,56.625,2.75,62.375c1.25,4.125,4.5,16,4.5,16l-4.25,1.125c0,0-5.875-35.5-5.25-45
	c-0.625-11.25-2.875-39.75,2.25-52.125c0.875-11.25,2-36.375,2-36.375s7.875,4,7.375,7.625c2.5,5.75,27.375,51.75,27.375,51.75
	l9.375,11.375l5,9.5l10.875,12.625c0,0,6.553,9.25,6.964,10.75s8.161,17.625,22.036,14.125c3.625-2.875,6.625-8.625,6.5-8.25
	s-5.875,7.375-14.75,1.75c-8-6.75-15.226-13.81-17-21.5c-3.875-6.25-7.875-9.125-7.875-9.125S532.629,391.376,534.125,389
	c-2.75-3-21.5-38-21.5-38l-11.375-26.5L499,367.75c0,0-3.607,37.992-7,44c-0.5,5.5-0.125,34.375-0.125,34.875s3.1,10.207,2.75,20.25
	c3.5,5.5,5.875,10.375,5.875,10.375L495.791,477.001z M627,299c0,0-15.25-46.25-45.5-77.75c-26-28-61.25-55.5-61.25-55.5L519,148
	c0,0,24,13.5,22.25,17.75c-8-5.75-17.75-11-17.75-11l-2,7c0,0,19.25,10.5,20.5,12.25s17.75,16.5,17.75,16.5l15.5,11.75
	c0,0,9.25,9.5,9.75,14.75C589.5,221.5,627,273.75,627,299z M644.75,170.75c2.75,12.25-1.5,44.5-1.5,44.5l-1.75-1l1.75-38.5
	L639.042,213l-1.792-3.25l3.584-40.25C640.834,169.5,641.75,172.25,644.75,170.75z M636,262.167l-6.583,17l-3-1.333l6.25-18
	l-7.334,14.25l-1.5-2.417l7.084-14.5C633.417,257.167,636,262.167,636,262.167z M585.19,108.167c0,0,2.143-4.605,3.477,2.667
	c9.334,37.333,1.167,72.667-2.666,81.7c-3,11.867-5.334,9.133-6.834,6.633c-5.167,1.167,2.667-13.333,2.667-13.333
	C595.001,153.667,585.19,108.167,585.19,108.167z"/>
<path fill="none" d="M499.75,268.75l-2.125,19.375l-2.25,9.875l-0.875,12.25c0,0,3,1.125,4.625-2.375
	c1.625-4.125,3.213-10.5,3.213-10.5l0.537-12.5L502.338,271C502.338,271,499.851,267.831,499.75,268.75z"/>
<path fill="none" d="M176,587.417c0,0,14.667-3.333,25.417,29.75c-12.083-6.501-28.667-16.833-28.75-17.917s0.667-9.25,0.667-9.25
	L176,587.417z"/>
<path fill="#E18333" d="M662.035,315.43c0.215,2.711,0.783,5.457-0.764,8.001c-0.545,18.655-2.097,37.246-4.057,55.79
	c-1.959,18.532-4.497,37.001-6.688,55.512c-0.352,2.949-0.764,5.388-4.646,4.714c-3.735-0.648-4.934-2.767-4.244-6.437
	c6.138-32.647,8.689-65.651,9.946-98.804c0.435-11.466,2.431-22.855,1.851-34.392c-0.286-5.695-1.118-11.271-3.234-16.585
	c-0.717-1.801-1.231-3.894-3.525-4.524c0.021,7.276,0.334,14.575-1.108,21.768c-0.439,2.185-0.486,5.594-2.99,5.598
	c-2.569,0.003-2.61-3.551-2.824-5.599c-0.651-6.239-0.707-12.54-1.2-18.8c-0.112-1.431,1.007-3.691-1.496-4.207l1.32-12.967
	l-4.875-14l-4.625-7.75l-1,0.864l-2.125,3.511l-3.25,2.375l-2.875,1l-2.5-5.625V242.5l-3.125-2v1h-3.625l1.25-4.125
	c0,0,0.125-2.625,0.875-5.625c-9.375-0.25-4-6.541-4-6.541s-4.333,0.958-6.542-0.042c-8.209,1-7.458-16-7.458-16
	s-2.333-7.333-3.333-11.667s-30.667-33.667-34.334-38c-1-4.333-37.833-40.667-37.833-40.667l7.454-10.616l1.796,0.282l21.25,18.875
	l31.625,30.75l35.188,41.75l6.5-0.625l12.688,11.563l1.75,4.438l6.25,2.917l0.667,13l-2.704,2v6.333l4.213,13.667l4.489-1.587
	c-0.241,0.57-0.491,1.138-0.765,1.704c0.902,1.017,2.453,1.418,2.818,2.95c1.646,1.699,2.229,3.868,2.698,6.089
	c0.468,1.375,0.938,2.749,1.404,4.124c0.104,0.683,0.21,1.364,0.313,2.047c0.276,0.992,0.555,1.985,0.828,2.978
	c2.685,9.555,3.811,19.332,4.174,29.218C662.777,305.575,662.474,310.5,662.035,315.43z M597.375,152.625l6.5,9.75
	c0,0,16.875,3.375,13,12.25c-3.125-2.625-3.125-1-3.125-1s13.625,19,15,26.875c-0.75-11.625-3.5-17.875-3.5-17.875
	s-1.625-10.5-4.75-13.625c-1.75-8.25-4.087-10.192-13-12.375C601.375,154.5,597.375,152.625,597.375,152.625z M657.718,204.979
	c-2.059-14.612-5.249-29.013-8.271-43.443c1.644-5.265-1.445-10.482-0.389-15.598c1.376-6.648-0.288-11.467-6.44-14.546
	c-0.337-0.335-0.674-0.67-1.013-1.005c-0.623-2.704-2.027-4.346-5.087-3.743c-0.32-0.065-0.645-0.13-0.967-0.194
	c-0.664-2.668-2.608-4.023-5.021-4.902c-0.366-0.382-0.732-0.764-1.101-1.146c-0.186-1.967-0.209-3.925,0.445-5.824
	c1.768-5.13-2.99-5.561-5.542-7.114c-2.688-1.639-4.815-0.01-5.857,2.85c-0.143-0.099-0.271-0.209-0.407-0.312
	c-0.194,2.031,0,4.843,1.858,7.225c1.515,1.223,2.988,2.316,4.322,3.15c-1.989-0.829-3.372-1.933-4.322-3.15
	c-6.428-5.192-13.553-12.725-13.553-12.725l4.015-4.196c0.003-0.078,0.006-0.155,0.01-0.233c1.521-4.571-1.984-6.443-4.722-8.673
	c-2.375-1.935-3.845,0.134-5.459,1.398c-1.325-0.206-2.479-0.627-3.511-1.199l2.042,3.027L601,99.75l-14.125-12.625l3.393-2.384
	c1.018-4.936-1.623-7.583-5.75-9.536c-3.223-1.524-4.475,0.652-5.938,2.672c-0.269-0.063-0.523-0.146-0.786-0.217l-0.666,3.465
	l-14.75-8.375l1.684-1.53c-0.054-1.491,1.23-3.384-0.48-4.134c-2.954-1.295-6.168-3.563-9.385-2.194
	c-2.848,1.21-4.705,0.24-6.91-0.914c-8.077-4.228-16.165-8.435-24.273-12.602c-1.266-0.65-2.518-1.951-4.108-1.007
	c-3.197,1.894-6.481,1.294-9.584,0.126c-2.663-1.002-4.442-0.229-6.096,1.696c-0.166,0.016-0.331,0.031-0.496,0.047l-0.386,1.095
	l7.496,5.167l2.833,4.167c0,0,6.167,2.333,19.5,10.833c5.166,1.333,33.834,18.167,42.167,24.667c10,3,23.041,19.833,23.041,19.833
	s1.293,3.167,3.959,5.333c-0.834,4.833,5.5,12.833,5.5,12.833s4.167,6.5,4.667,6.5s4.5-1.667,4.5-1.667l1.5,1.667l3.666,0.833
	l5.834,3.167l1,9.333c0,0,2.833,2.833,4.833,3.833c2,0.5,1.333-10.5,1.333-10.5h3.667v3.292c0,0,1.667,4.542,5.667,13.042
	c3.86,6.788,4.53,24.299,4.646,31.083c0.283,0.006,0.629,0.056,1.063,0.175c0.826,3.415,1.225,7.011,4.043,9.585
	c0.674,1.724,2.202,3.037,3.734,2.518C658.574,208.489,657.914,206.378,657.718,204.979z M498,128.333c0,0-4.666-4.333-18.333,0
	c-2.5,2,2.5,8.833,7.5,13.5c2.5-1,4.833-1.333,4.833-1.333l7.167,2.833v-3.5L498,128.333z M502.338,172
	c0,0-16.505-1.833-18.838,2.167c0,3.333-0.666,4.5,3.167,8.167C489,186,491.5,188.5,491.5,188.5l7.667-8.459l1-3.207l3.166-3.333
	L502.338,172z M632.168,326.417c0-2.75-1.667-5.5-6.917-9.917c2.25-4.833-1.833-6-4.417-9.417c-0.334-4.083-3.833-8.167-3.833-8.167
	s-1.167-1.25-1.5-6.583c-0.333-4.5-3.083-5.333-3.083-5.333l-9.334,11.25l-0.583,9.667l2.333,0.75l0.541,2.021L602.938,311l-0.375,2
	l2,1.938c0,0-0.5,5.125-0.875,9.813C600.5,329.063,604,335,604,335l-2.818,9.25L598,356.75c0,0,1.5,7.75-1.25,8.5S596,368,596,368
	v13.25c0,0-4.75-5.5-13.75-19.5c10-8.25,2.417-30.25,2.417-30.25c4.334-0.667,6-5.333,6-5.333l1.166-9.167l1.834-11.167
	c0,0,1.833-7.833,2.166-16.331c2.833-8.165,2-10.002,1.667-13.835c4.167-4.167,3.833-5.333,3.5-11.167
	c-0.5-5.667-14-13.667-14-13.667l-19.5-4.167l-6,4.167c0,0,0.333,10.833,1,13.167c1.167,19.167-12.667,51.167-12.667,51.167
	l-0.749,1.083l-0.917-0.917l-3.166-5.833c0,0-4.917-7.5-8.417-9.75c-3.5-0.333-11.417,8.167-11.417,8.167s9,12.667,11.084,16.25
	c-2.083,1.833-2.417,4.5-2.084,9c-0.667,11.75,11.75,6.833,11.75,6.833s9.834,14.167,11.5,17c-4.584,1.333-1.916,10.25-1.916,10.25
	s1.083,2.667,5.166,8.5c6.166,7.833,10.917,5.083,10.917,5.083l4.75,6.667l-3.793,3.5l1.584,3.375c0,0,1.583,2.167,3.291,7.709
	c1.083,5.709,4,4.291,4,4.291s0.334,0,0.625,0.084s5.917-0.834,5.917-0.834l5.542,2.833c0,0-0.208,1.084-0.458,2.959
	c-1.166,4.417,8.458,3.083,8.458,3.083l3.75,0.75l-0.5,4.25l5.25,18.75l-0.344,5.841c0.367-0.528,0.668-1.107,0.867-1.765
	c0.992-0.045,1.987-0.089,2.982-0.134c1.047,5.305-0.105,10.577-0.331,15.854c-0.198,4.677,0.027,9.298,0.653,13.909
	c0.188,1.407,0.308,3.234,2.492,3.008c1.922-0.199,2.248-1.592,2.189-3.271c-0.095-2.822-0.224-5.655-0.085-8.474
	c0.402-8.126,0.782-16.324,3.58-24.027c2.287-6.3,1.915-10.053-2.745-14.641c0.514-2.543,0.909-5.116,1.577-7.617
	c0.462-1.728,0.839-3.36-1.129-4.212c-4.259-1.838-3.096-4.632-1.542-7.589c0.604-1.146,1.497-2.21,1.202-3.654
	c1.953-4.438,4.619-8.656,4.165-13.819c-0.041-1.051-0.082-2.102-0.123-3.152c2.433-5.175,7.133-9.57,5.54-16.128
	c1.847-5.611,0.872-11.886,3.754-17.203c2.695-4.972,2.67-10.472,3.737-15.765c0.618-3.069-0.041-5.55-3.045-7.032
	c0-0.28,0-0.56,0-0.84C632.94,327.177,632.519,326.802,632.168,326.417z"/>
<path fill="#F6EC70" d="M345,127.25c0,0-7.5,41.25-7.5,42.25s5.75,29.25,3.75,36C336.5,188,333,173.25,333,173.25V153.5L345,127.25z
	 M397.5,239.5L409,237c0,0-11.5-82.543,3.25-130.271C413,84,412.75,75.5,425,54c-5.5,0.25-16.975-2.75-23.487,51.5
	C396.5,145,394,177.75,394,177.75l2.75,60.25L397.5,239.5z M332.625,274.5c0,0,2.125,1.25-0.75,4.75
	c-3,4.5,0.292,33.333,0.292,33.333l6,62.333l6.167,42.667L347.417,434L353,457.583l7.5,28.667l1.833,8l-10.684,4.101l-1.816-9.851
	l-9.333-48.94l-9-51.726l-3.572-27.667l-3.57-17.667c0,0,0.812-21.333,0.145-36.667c-1.333-18,7-35.417,7-35.417L332.625,274.5z
	 M267.167,351.833l16,58.667l21.833,74l10,22.75c0,0-7.383,2.296-10,0s-8.25-24.5-12.75-31.492s-13.5-49.258-18-65.258
	c-10.5-20-17.5-55-17.5-55s-2-8.5-2.25-17.5s2.25-8.5,2.25-8.5C258.338,327.815,267.167,351.833,267.167,351.833z M231.833,371.833
	c0,0,1.167,5.5,2,12.328c2.167,2.995,5.5,21.839,5.5,21.839l7.5,38l13,42.167L272.75,517l-7.828,1.893L264,517.167l-13.833-39.333
	l-5.167-17l-6.5-26.667l-4-26.167l-7.167-41.667L231.833,371.833z M231.5,533.75c-3.375-2.625-13.375-30.5-13.375-30.5
	S204.25,468,198.5,452.5c-6.875-15.625-14.125-50.821-14.125-50.821l-8-51.054c0,0-5.5-58.625-6.25-66.5S176,257.833,176,257.833
	L185.875,225l4.875-31.875l1.625-10.625l-2.625-35.125c0,0,12.75-10.875,27.708-16.981c24.458-9.856,23.292-0.769,23.292-0.769
	L229.625,137l-11.75,4l-2.125,5.75l-7.25,16.75l-12,34.375c0,0-7.25,33.125-11.25,47.625C182,247.25,176,284,176,284l4.5,48.5
	c0,0,4.25,39.75,6,51.661c-1.75,10.661,16.25,63.089,16.25,63.089l21.75,52.25l14.475,30.249
	C238.975,529.749,236.178,531.472,231.5,533.75z M192.75,480.75l12,29.625l10.625,23.375l5.658,11.672l-3.782,6.807L202.75,518
	l-6.375-20.75L192.75,480.75z M570.101,669.591l-2.851,0.909c0,0-9.375,42.125-42,53.875c-31.25,12-40,20.75-119.25,25.25
	c-46.75,0-75.375-21.875-76.375-25.25S311.75,704.75,311.75,704.75l-1.5-1.875c0,0,8.25-3,3.5-6.75c-3.375-3.5-5.5-6-9.875-6.25
	c-2.125-4.25-8.25-12.5-8.25-12.5s-4.5-10.5-6.625-13.25c2.125-3.625,2.25-7.625,0.625-9.625c-1.625-3.375-6.25-8.375-6.25-8.375
	s-1.125-2.5-4.375,1.875c-2.875-2.75-29.25-38.5-29.25-38.5l-0.125-2.25c0,0,6.875,5.75,34.5,7.125
	C314,616.125,332.5,618.75,348.75,615c17-0.75,60.25-4.75,60.25-4.75l25.5-2.25c0,0,25.25,1.5,40-4.75
	c18.75-6.25,40.75-14.5,54-31.5c13.25-15.25,21.25-24,23.25-36C554.25,525,557,516.25,547,506c-1.5-6.5-14.75-26.25-46.5-28.75
	c-30-1.5-64.75-5.25-114.5,10.5c-49.75,16.25-77,21.5-77,21.5L272.75,517c0,0-25.25,4.5-43.5,19.5c-6.25,6.5-17,14.25-13.75,37
	c0.75,12.75,1.75,24,2.5,26.25s-13.083-15.333-13.083-15.333L198.5,590l1.833,4.75c0,0,26.667,32.085,28,39.751
	c-2.5,4-4.833,9.167-1.833,17c1.333,5.5,5.583,12.367,6.451,13.815c0.012,0.02,0.029,0.062,0.043,0.09
	c1.965,2.961,2.807,6.604,5.477,9.137c3.701,5.987,10.313,7.118,16.09,9.643c6.036,2.694,9.343,8.532,14.328,12.438
	c1.208,2.805,3.001,5.165,5.374,7.087c2.041,4.593,5.171,8.005,10.239,9.186c1.745,0.404,2.841,1.504,3.888,2.813
	c4.521,5.654,13.911,5.6,18.067-0.104l0.167-0.118c0.588,0.025,0.882-0.257,0.889-0.844c2.005-1.66,2.126-3.807,1.566-6.122
	c2.589-0.578,1.95,2.297,3.279,3.063c-0.025,0.869,0.132,1.662,0.905,2.201c0.025,1.458,0.808,2.584,1.63,3.688
	c2.661,5.692,6.723,10.245,11.559,14.164c1.061,1.596,2.344,2.952,4.063,3.85c1.686,2.318,3.935,4.034,6.177,5.749
	c15.341,11.737,33.102,17.051,51.991,17.999c28.107,1.41,56.193,0.481,83.913-5.028c15.297-3.041,30.555-6.375,44.978-12.604
	c9.852-3.501,19.155-8.075,27.445-14.495c1.823-1.413,4.47-2.451,4.324-5.521c2.47-1.134,3.364-3.753,5.189-5.494
	c1.857-1.864,3.272-4.01,4.084-6.53c0,0-0.059,0.028-0.059,0.027c4.885-6.587,7.537-14.188,9.613-21.971
	C569.742,681.748,571.449,675.797,570.101,669.591z M244.833,597.5c0,0-3.667-9.333-5.333-20c2.333-10.667,1-20.333,3.667-25.271
	c12.667-12.605,41-14.062,41-14.062l26-7.333L337.5,525.5c0,0,22-8,64.013-20.666c76.015-18.333,109.987-5,109.987-5
	c5-0.416,15,11.166,18.25,17.166c2,10.25-6.5,19.25-6.5,19.25s-10.25,9.75-15,15.979C500.25,555.455,495,563,489,574.5
	c-6.75,9.25-59.166,17.167-59.166,17.167L368.5,597.5h-75.667l-21-5.666c0,0-14.333-3-20.333-2.334
	C246.167,588.833,244.833,597.5,244.833,597.5z"/>
<path fill="#F6EC70" d="M324,649.25c0,0,67.775-7,77.513-10c10.737-0.75,71.987-5.75,71.987-5.75l13.75-4l2.75,5
	c0,0-18.25,45.75-28.25,54.25c-12.25-8-60.237-40.25-60.237-40.25L359,693.25C359,693.25,328.75,667.5,324,649.25z M377.375,708.875
	l45.125,24.5c0,0,8-8,33.5-36c-53.625-13-80.125,8.75-80.125,8.75L377.375,708.875z"/>
<path fill="#E28936" d="M416.125,682.125l-28,10.125L406,674.875L416.125,682.125z M405.125,652.75l53.5,38.5l-1,2.75l-66-0.75
	l28.125-10.75l-14.375-9.5L372.5,706.125l-19.125-2.25L405.125,652.75z M300.583,95.833c-11.583,1.5-27.119,4.95-28.518,7.267
	s-12.898,8.899-5.482,8.316s10.5-2.083,10.5-2.083s-0.667,4.917-1.083,5.417s-6,6.083-6,6.083l-8.833,1.998l-4.833,0.752
	c0,0-5.417,1.5,0,4.5c5.417,2.667,4.667,3.167,12.167,0.75c7.667-2.417,15.333-6.002,15.333-6.002s5.917-2.665,4.667-6.998
	c-3.167-0.25-4.167,0-4.167,0s-1.417-5.917,4.75-8.667c6-2.083,11.167-4.834,8.667-0.667s-8.333,8.25-6.667,12.667
	c3-0.417,3.083,0.833,9.167-4.167s9.167-12.167,9.167-12.167S311.917,97,300.583,95.833z M288.5,122.833
	c0,0-1.667,5.75-4.583,12.333c-8.083,11.917-7.667,9.333-12.583,11.333c-5.583-0.583-14.25-7.417-14.25-7.417
	s-1.667,5.083-4.333,9.585c-10.917,11.919-9.083,5.498-9.083,5.498s4.417-9.333,6.167-14.25c1.083-4.25,8.5-8.583,8.5-8.583L274,139
	c0,0,2.917-4.583,5.333-11C282.5,122.583,288.5,122.833,288.5,122.833z M227.5,223.5c0,0,13.333-10.666,38.333-11.833
	c-0.333,6-0.833,8.167-0.833,8.167l-24.167,20c0,0,25-8,22.667,5.833c0,0-19.833-2.5-38.667,12.167
	c-1.167-1.833-0.001-15.667,16.75-30.833c-4.75,2.333-10.583,4.5-10.583,4.5l-4-4.5L227.5,223.5z M262.125,180.313l7.563,2.625
	l-1,19.75l-0.313-0.25c0,0-10.125,11.709-19.563,9.229c-6.75,1.646-16.125,4.958-16.125,4.958l-3.063-2.375l1.813-18l5.688-7.188
	L262.125,180.313z M260.375,189.125l-21.625,7.625l-1.5,9.5l16.938-4.25l1.625,4.625h3.313L260.375,189.125z M270.667,148.75
	c-0.833,0.667-27.167,10.083-27.167,10.083l-9.167,21.479l5.917,4.188l7.833-20.75l19.667-6.667L264.167,177l9.917-7.083
	l3.25-18.167C277.333,151.75,271.5,148.083,270.667,148.75z M251.833,249.5L251,259.667c0,0-0.667-2.167-1.833-7.333
	c-15.167-0.833-24,8.833-24,8.833l-1,2.833l3.833,4.167l7.5-3l-0.5,14.167l-13,7v3c0,0,2,2.667,6.833,4.167
	c7-4.833,25.833-6.167,25.833-6.167l6.5-5v-26.167L251.833,249.5z M251.667,277h-7.5v-12.667l7.5-0.5V277z"/>
</svg>
