<?xml version="1.0" encoding="utf-8"?>
<!-- Generator: Adobe Illustrator 16.0.0, SVG Export Plug-In . SVG Version: 6.00 Build 0)  -->
<!DOCTYPE svg PUBLIC "-//W3C//DTD SVG 1.1//EN" "http://www.w3.org/Graphics/SVG/1.1/DTD/svg11.dtd">
<svg version="1.1" id="Layer_2" xmlns="http://www.w3.org/2000/svg" xmlns:xlink="http://www.w3.org/1999/xlink" x="0px" y="0px"
	 width="800px" height="800px" viewBox="0 0 800 800" enable-background="new 0 0 800 800" xml:space="preserve">
<path fill="#373040" d="M751.424,414.563c0.495-6.556-0.065-12.951-2.813-19.026c2.171-4.47,2.149-9.214,1.75-14.005
	c0.631-5.009-1.512-9.431-2.971-13.996c0.656-4.404-0.629-8.357-2.813-12.1c-0.118-3.104-2.922-5.109-3.317-8.1
	c0.821-3.218-0.156-6.088-1.711-8.846c0.054-0.89-0.229-1.582-1.128-1.91l-0.005-0.006c0.002-1.223-0.565-1.973-1.8-2.17
	l-0.009-0.015c-1.138-4.135-4.556-6.652-6.99-9.865c-4.271-6.122-11.005-9.388-16.581-13.963c-3.884-3.186-6.701-7.916-12.021-9.254
	c-4.597-2.823-9.399-5.158-13.185-9.367c-2.63-2.928-5.922-5.775-10.249-6.48c-0.394-0.797-0.967-1.347-1.62-1.792
	c3.817,3.41,5.776,10.83,8.207,16.502c9.587,9.916,5.501,29.5,5.501,29.5s0.41,10.238,0.5,34.833c1.5,24.5-3.918,39-3.918,39
	l-1.685-30.126c0,0-3.064-35.541-3.231-45.874c2-6.333-1.833-24.833-5.833-32.667c-1.452-7.194-2.557-12.833-2.557-12.833
	c0.014,0.003,0.024,0.01,0.039,0.014c-0.13-0.079-0.261-0.154-0.384-0.241c-0.014-0.745-0.024-1.491-0.039-2.236
	c-0.014,0.003-0.021,0.01-0.03,0.013l0.028-0.042c0,0.01,0,0.019,0.002,0.029c0.99-0.31,0.973-1.251,1.236-2.015
	c0.691-1.99,3.001-4,0.538-6.069c-2.911-2.445-11.528-2.25-14.961,0.065c-3.913-2.647-5.24-7.267-8.157-10.699
	c-6.129-7.216-11.995-8.329-19.813-3.39c-0.618,0.393-1.235,0.786-1.854,1.179c-7.344-5.148-14.666-10.328-22.037-15.438
	c-20.747-14.385-41.232-29.167-63.313-41.524c1.546-3.269,4.492-5.961,4.128-10.018c-5.293-2.186-10.565-4.896-16.114-0.64
	c-6.057-3.255-11.755-7.303-18.759-8.455c-0.277-0.066-0.555-0.133-0.832-0.199c-2.36-0.951-4.721-1.903-7.082-2.854
	c-6.229-4.416-12.727-8.462-19.925-10.994c-29.474-10.368-59.879-14.253-91.037-12.533c-1.052,0.005-2.104,0.01-3.155,0.015
	c-7.009-0.972-13.67,0.7-20.291,2.675c-0.942-0.186-1.891-0.376-2.749,0.282c-0.723,0.18-1.443,0.36-2.169,0.541
	c-1.668,0.146-3.335,0.292-5.002,0.438c-4.01-2.559-7.829-1.202-11.628,0.565c-8.132,2.197-16.38,4.057-23.854,8.169l-0.15,0.032
	c-1.143-0.31-2.083,0.064-2.898,0.857c-20.452,5.686-36.884,17.909-52.138,32.051c-1.052,0.223-1.729,0.872-2.111,1.854
	c-0.346,0.318-0.693,0.636-1.039,0.954c-3.621,1.567-5.423,5.544-9.176,6.931c-5.029,3.257-9.384,7.354-13.941,11.2
	c-5.917,0.145-12.375-0.562-16.528,4.631c-5.558,6.947-13.156,11.453-19.402,17.526c-3.157,3.069-7.039,5.494-8.861,9.776
	c-1.765,1.098-2.539,2.968-3.657,4.589c-6.351,9.203-11.93,19.117-22.298,24.696c-3.659-0.894-7.343-1.475-11.14-1.352
	c-3.444,0.112-5.666,1.332-5.536,5.173c-0.025,1.296-0.049,2.593-0.074,3.889c-0.156,0.267-0.257,0.553-0.303,0.858
	c-4.909,0.428-8.367,3.57-11.99,6.406c-0.775-0.022-1.498,0.011-1.212,1.128c-0.194,0.169-0.391,0.332-0.592,0.491
	c-0.216,0.012-0.432,0.022-0.648,0.034c0.073,0.119,0.146,0.238,0.22,0.358c-0.181,0.178-0.364,0.354-0.549,0.529
	c-0.229,0.031-0.459,0.063-0.689,0.094c0.076,0.125,0.151,0.249,0.228,0.373c-0.154,0.156-0.309,0.313-0.463,0.47
	c-1.839-0.813-2.749,0.682-3.808,1.617c-8.715,7.698-17.571,15.251-26.025,23.229c-4.314,4.07-9.603,7.177-12.799,12.403
	l-0.304,0.227c-0.655,0.026-1.069,0.335-1.177,1.003l-0.001,0.004c-0.607,0.057-0.954,0.373-0.991,0.996l-0.009,0.008
	c-0.354,0.317-0.709,0.634-1.063,0.95l0.014-0.014c-0.405,0.291-0.811,0.581-1.216,0.872c-0.216,0.133-0.423,0.278-0.622,0.437
	c-0.591-0.08-0.913,0.175-0.961,0.771l-0.14,0.118c-0.587-0.029-0.899,0.257-0.958,0.834c-12.412,10.813-26.965,18.85-39.042,30.097
	c-3.04,0.058-5.868,0.975-8.626,2.152c-10.948,4.673-12.853,14.263-13.367,24.605c-0.541,4.932,0.319,9.608,2.533,14.046
	c0.35,1.097,0.591,2.243,1.065,3.282c7.691,16.839,14.432,34.007,18.967,52.012c1.107,4.396,2.114,8.998,5.12,12.705
	c1.215,3.815,3.285,7.126,5.985,10.06c7.815,10.588,17.702,19.011,28.108,26.891c9.61,7.247,20.013,13.135,30.985,18.043
	c2.449,1.362,4.889,2.745,7.347,4.095c12.053,6.612,24.917,11.657,36.623,18.943c1.54,1.872,4.219,2.003,6.42,3.836
	c-3.853,0-7.096,0-10.339,0c-9.793-2.162-19.752-2.427-29.679-1.903c-4.909,0.259-4.293,5.297-5.075,8.509
	c-0.851,3.496,2.42,3.228,4.615,3.496c6.91,0.853,13.816,1.767,20.748,2.403c12.019,1.104,23.634,5.423,35.908,4.452
	c2.131-0.17,3.727,1.174,5.44,2.146l0.057,0.021c0.396,0.904,0.779,0.604,1.159-0.012c3.665-0.529,7.024-2.758,10.927-1.966
	c1.894,2.994,2.746,6.884,6.857,7.97c1.947,0.789,3.966,1.438,5.829,2.396c5.875,3.011,11.17,2.837,16.421-1.695
	c3.446-2.974,7.114-5.93,11.797-6.979c4.446,0.757,9.003,2.943,13.04-1.183c0.772-0.79,1.864-0.332,2.839-0.187
	c7.28,1.087,14.501,0.761,21.596-1.202c2.047-0.566,3.402-0.072,4.457,1.646c0.335,0.146,0.67,0.291,1.005,0.438
	c2.351,1.201,4.94,0.224,7.316,0.756c3.288,0.736,6.058-2.314,9.001-1.384c7.327,2.315,14.422,1.175,21.57-0.515
	c0.114,0.315,0.229,0.635,0.343,0.947c4.751,2.578,10.313,1.853,15.232,3.729c-0.205,1.356-1.01,3.05,1.581,2.867
	c9.216,3.354,15.161-3.242,21.967-7.223c6.694-0.118,12.587,3.389,19.069,4.229c0.652,0.122,1.31,0.244,1.965,0.366
	c0.528,0.666,1.205,0.896,2.03,0.692c0.652,0.105,1.311,0.212,1.965,0.317c1.484,1.137,3.308,1.25,5.037,1.645
	c7.266,2.015,14.528,4.032,22.013,5.118c5.725,1.722,11.813,1.909,17.414,4.132c-2.278,2.372-5.92,1.101-8.331,3.115
	c-7.345,0.979-14.536,2.621-21.543,5.045c-4.131,2.475-9.168,0.845-13.38,2.954c-5.78,0.354-11.23,2.128-16.682,3.897
	c-1.193,1.181-2.841,0.854-4.258,1.27c-6.267-0.182-12.05,2.027-17.956,3.628c-1.22,0.195-2.438,0.392-3.656,0.586
	c-0.967-0.144-1.329,0.309-1.223,1.229c-0.146,1.337-0.293,2.674-0.438,4.011c-1.068,3.521-1.304,7.081,0.619,10.328
	c0.813,1.377,1.841,4.125,4.267,1.37c1.328,1.582,2.938,1.064,4.578,0.673c32.247-7.748,64.433-15.808,97.087-21.691
	c12.435-2.241,24.234-8.271,37.367-6.426c1,1.745,2.686,0.89,4.096,1.082c5.869,1.896,11.97,2.592,18.035,3.471
	c1.007,0.108,2.014,0.217,3.02,0.325c1.438,0.37,2.854,0.889,4.314,1.086c11.671,1.582,23.33,3.273,35.03,4.6
	c15.813,1.793,31.625,3.888,47.604,3.463c1.002,0.005,2.003,0.009,3.005,0.013c2.666,0.521,5.32,0.169,7.978-0.117
	c15.13-1.054,29.594-4.526,42.997-11.848c3.679-0.871,7.354-1.741,11.036-2.612c4.355,0.327,8.879,1.577,12.508-2.213l0.321,0.259
	c0,0,0.411-0.032,0.406-0.039l0.309,0.16l0.345-0.014c5.414-0.874,9.722-3.316,12.085-8.521c2.219-3.404,2.191-7.159,1.713-10.984
	c0.194-0.854,0.39-1.714,0.583-2.567c4.586-6.527,4.326-10.099-1.141-15.709c-0.721-1.215-1.438-2.431-2.155-3.646
	c1.922-4.563-1.518-9.533,1.073-14.045l-0.001-0.018c0.095-0.104,0.285-0.229,0.267-0.304c-0.061-0.256-0.195-0.487-0.303-0.729
	c1.776-3.16,0.284-6.45,0.385-9.677c0.616-0.399,1.232-0.799,1.849-1.197c2.702-1.947,2.743-5.901,5.748-7.622
	c6.015,4.626,10.347,3.618,12.834-3.16c1.135-3.085,1.865-6.315,2.779-9.481c0.098-0.628,0.194-1.259,0.291-1.888
	c0.259-0.689,0.521-1.386,0.776-2.076c0.245-0.319,0.491-0.643,0.73-0.957c4.268-0.476,9.241,2.01,11.071-5.313
	c1.972-7.885,2.771-7.685-4.373-11.997c0.962-2.24,1.925-4.479,2.888-6.72c3.563-1.436,8.291-0.885,9.813-5.783
	c0.08-0.693,0.16-1.386,0.24-2.079c1.413-2.942,0.658-6.244,1.527-9.284c1.119-3.914-0.23-6.803-3.784-8.711
	c-0.38-0.802-0.759-1.604-1.14-2.403c0.136-0.894,0.271-1.783,0.405-2.678c1.716-3.807,6.203-5.11,7.987-8.854
	c0.267-0.397,0.53-0.795,0.798-1.192l0.036-0.102c2.104-7.718,1.922-15.345-0.894-22.868
	C749.655,423.746,753.034,420.105,751.424,414.563z M245.75,342.75c11.5,9.5,21.918,11.666,39.75,18.083
	c-6.25,1.167-31-5.083-41-13.833c-13.5-9.5-19.75-16.25-19.75-16.25S200.5,310.75,193,287C193,287,220.5,333,245.75,342.75z
	 M103.5,439.108c0,0-22.5,24.892-24.75,27.142s-5.5,5.5-7.5,7.5c0-2.75,2-6.5,10.75-14c18-17.5,39-47.25,39-47.25
	s23.25-29.75,28.25-40.133c20.5-25.133,27.5-59.367,30-69.367c2.5-17.25,10-12,10-12l-2.334,6.584l-7.583,20.333l-13.5,34.667
	L140.5,393.417L103.5,439.108z M176.625,553.25c-18.125-4.625-34.14-9.961-34.625-10.625s3.125-4.125,3.125-4.125s36,8.375,39.125,8
	C186.625,550.25,186.125,558.25,176.625,553.25z M188.5,488.334c-24.833-16.833-25.5-27-29.5-41.834
	c-3.432-21.497,8.5-36,15.833-44.833c21-18.333,41.5-13.833,41.5-13.833s0,0,8.167,2.286c-21.5-3.214-30.333,3.214-35.25,7.187
	c-16.083,7.974-22.75,30.028-23.083,41.049c7.167,45.688,40.5,48.646,54,50.146c13.992-1.408,23.197-8.197,28.772-14.293
	c4.388-5.685,7.068-10.344,7.068-10.344s-2.084,4.895-7.068,10.344c-3.121,4.043-7.103,8.604-11.605,12.383
	C221.292,497.054,204,493.167,188.5,488.334z M245.25,572.125c-7.164-7.411-26.276-11.036-26.608-11.483
	c-0.029,0.329-0.392,2.233-0.392,2.233l0.25,26.875c0,0,0,1-0.75,2.125c-9.75-2.25-6.125-22.374-6.125-22.374L212.5,555
	c0,0,1-7.25,3.625-15c5.75-13.875,13.875-7.875,13.875-7.875s0,0-1.125,1.625c-13.875,0-12,24.75-12,24.75s1.75-2.875,3.125-3.375
	s21.625,10.75,21.625,10.75l-1.75-2.375l13.875-10.75l17.625-14.875c2.125,0.5,0,3.125,0,3.125l-11.75,11.875l-18,13
	c0,0,4,3,12.375,6.75c16.375,4.75,17.125-1.5,17.125-1.5s1.75-0.5,2.25,0.75C263.25,582.625,254.375,576.875,245.25,572.125z
	 M350.75,553.25c0,0-38.875,0.75-47,3.25c-13.625,1.375-26,5.875-27.75,6.125s-23.125,6.876-23.125,6.876s-8.375,0.249-4.875-4.626
	c0,0,42.125-15.5,53.25-15.875s42-2.5,42-2.5l12.875,3.125L350.75,553.25z M613.833,486.5c-11.333-3-65.937-25.333-65.937-25.333
	L503.833,439.5c0,0,32.333-14.666,24-45c4-5,4.668-9.667,11.334-7.333c9.954-1.991,30.146-2.34,35.917-29.963
	c0.02-0.228,0.083-0.37,0.083-0.37c-0.025,0.127-0.057,0.244-0.083,0.37c-0.11,1.289,1.237,5.377,24.083,2.63
	c17.333,7.333,27.333,12.333,27.333,12.333S617.833,476.5,613.833,486.5z"/>
<g>
	<path d="M504.761,439.956c0.681,0.336,1.144,0.563,1.354,0.665L504.761,439.956z"/>
	<path d="M746.497,427.472c3.158-3.726,6.537-7.364,4.927-12.909c0.495-6.556-0.065-12.951-2.813-19.026
		c2.171-4.47,2.149-9.214,1.75-14.005c0.631-5.009-1.512-9.431-2.971-13.996c0.656-4.404-0.629-8.357-2.813-12.1
		c-0.118-3.104-2.922-5.109-3.317-8.1c0.821-3.218-0.156-6.088-1.711-8.846c0.054-0.89-0.229-1.582-1.128-1.91l-0.005-0.006
		c0.002-1.223-0.565-1.973-1.8-2.17l-0.009-0.015c-1.138-4.135-4.556-6.652-6.99-9.865c-4.271-6.122-11.005-9.388-16.581-13.963
		c-3.884-3.186-6.701-7.916-12.021-9.254c-4.597-2.823-9.399-5.158-13.185-9.367c-1.268-1.41-2.69-2.795-4.307-3.938l-4.999-1.093
		l0,0c2.269,3.79,3.822,9.015,5.644,13.261c9.587,9.916,5.501,29.5,5.501,29.5s0.41,10.238,0.5,34.833c1.5,24.5-3.918,39-3.918,39
		l-1.685-30.126c0,0-3.064-35.541-3.231-45.874c2-6.333-1.833-24.833-5.833-32.667c-1.452-7.194-2.557-12.833-2.557-12.833
		c0.014,0.003,0.024,0.01,0.039,0.014c-0.13-0.079-0.261-0.154-0.384-0.241c-0.014-0.745-0.024-1.491-0.039-2.236
		c-0.014,0.003-0.021,0.01-0.03,0.013l0.028-0.042c0,0.01,0,0.019,0.002,0.029c0.028-0.009,0.051-0.023,0.076-0.034l-7.692-9.676
		c-2.206,0.239-4.265,0.811-5.568,1.691c-3.913-2.647-5.24-7.267-8.157-10.699c-6.129-7.216-11.995-8.329-19.813-3.39
		c-0.618,0.394-1.235,0.786-1.854,1.179c-0.435-0.304-0.868-0.61-1.302-0.915l2.587,11.65c0,0-67.088-35.571-93.667-42.844
		c0,0,3.638-25.708,2.833-37.649c-2.555-0.328-5.139,0.107-7.787,2.138c-6.057-3.255-11.755-7.303-18.759-8.455
		c-0.277-0.066-0.555-0.133-0.832-0.199c-2.36-0.951-4.721-1.903-7.082-2.854c-6.229-4.416-12.727-8.462-19.925-10.994
		c-8.753-3.079-17.591-5.573-26.504-7.532c-5.166,6.716-15.865,21.483-15.611,28.272c-2,7.273-6.5,40.94-23,71.94
		c-12.425,29.751-24.333,80.125-26.666,84.396s-8,25.782-8.667,28.86c-3.667,9.745-8.333,21.078-8.333,21.078l49.667,22h4l5-4.666
		c0,0,23.75,3.666,24.75,4.666s20.5,6.75,22,9.5c1.197,2.194,15.749,9.594,21.587,12.498c0.186-0.084,32.308-14.751,23.996-44.998
		c4-5,4.668-9.667,11.334-7.333c9.954-1.991,30.146-2.34,35.917-29.963c0.021-0.228,0.083-0.37,0.083-0.37
		c-0.024,0.127-0.057,0.244-0.083,0.37c-0.109,1.289,1.237,5.377,24.083,2.63c17.333,7.333,27.333,12.333,27.333,12.333
		s-8.67,104.332-12.67,114.332c-0.614-0.162-1.361-0.385-2.214-0.654V502.5c0,0,3.381,3.375,17.881,8.125
		c9.313,1.875,18.875,5.625,18.875,5.625s7.5,5.5,25.375,5.75c14.5,3.375,27.625,7.25,27.625,7.25l12.25,4.375h1.692
		c0.771-0.952,1.446-2.195,2.021-3.762c1.133-3.085,1.865-6.317,2.779-9.483c0.098-0.628,0.193-1.258,0.291-1.886
		c0.259-0.691,0.519-1.386,0.775-2.078c0.244-0.319,0.49-0.641,0.731-0.957c4.266-0.474,9.241,2.01,11.071-5.313
		c1.972-7.887,2.771-7.687-4.373-11.997c0.962-2.24,1.925-4.479,2.888-6.722c3.563-1.434,8.291-0.885,9.813-5.781
		c0.079-0.693,0.158-1.388,0.238-2.079c1.413-2.944,0.66-6.244,1.529-9.284c1.119-3.914-0.231-6.803-3.784-8.711
		c-0.38-0.803-0.759-1.604-1.14-2.405c0.136-0.892,0.271-1.783,0.405-2.676c1.716-3.809,6.202-5.112,7.986-8.856
		c0.268-0.396,0.531-0.795,0.798-1.19l0.036-0.104C749.493,442.622,749.311,434.995,746.497,427.472z"/>
</g>
<polygon fill="none" points="473.75,328.75 471.875,331.834 473.75,332.625 "/>
<polygon fill="none" points="553.761,333.045 552.697,330.868 548.52,329.291 545.543,330.744 546.365,332.428 549.915,332.435 "/>
<path fill="none" d="M44.656,382.978c0,0-6.281,18.772,3.344,30.397c4,10.875,15.75,42.875,15.75,42.875l4.875,11.563
	c0,0-1,4.813,3.625,8.688c2.25,5.125,5.375,15.125,8,17.125c4.375,4.875,12.25,11,12.25,11l10,8l4.875,2.5l29,19.25L144,536
	l-1.987,2.5l-15.21-7.102l-24.707-16.416l-22.561-16.517c0,0-11.05-11.729-13.042-21.287c-3.924-9.938-16.117-44.448-16.117-44.448
	L46,423.25l-5.25-13.5C40.75,409.75,34.072,393.385,44.656,382.978z"/>
<path fill="#F9E97C" d="M265.22,416.125c-4.095-10.625-8.845-23.625-41.72-33.5c-10.625-2.625-16.458-2.417-18-2.25
	c0,0-19,1.375-31.75,13.125c0,0-12.561,13.375-15.905,23.75c-1.97,7.375-6.72,31.125,1.155,45.125c6.25,10.75,21.375,34,40.625,35.5
	c17.625,0.125,32,0,32,0S254,491,265.22,460.125C266,446.875,269.94,446,265.22,416.125z M265.125,432.938
	c-1.25,17.063-1.5,31.313-11.75,43.188c-16.625,20.75-24.75,18.25-39.194,19.125c-29.944,0.125-37.056-13.5-43.056-20.25
	c-18.75-19.625-12.625-40.75-11.125-52.5c7.125-24.375,28.875-35.125,28.875-35.125L203.5,383.5l18.375,1.167
	c0,0,15.5,6.083,26.75,11.286C255,403.03,266.375,415.875,265.125,432.938z M65.833,467.25c0,0,21.667-27.584,29.417-32.584
	c2.833-4.916,34.5-44.547,34.5-44.547l16.833-23.619c0,0,13.167-21.833,16.667-29.333s12.583-30.083,12.583-30.083l2.917-6.833
	c0,0-6,22.75-15.917,44.167c-4.5,7.833-22.583,38.071-29.583,45.702c-4.917,6.547-29.25,37.965-29.25,37.965l-26.75,29.25
	l-10.083,12.249L65.833,467.25z M63.75,455l3.75-3.5l1.833-1l0.25-1.916l3.417-3.25l2.167-0.834l0.167-2.416l2.583-2.976
	l3.333-1.691v-1.583L83.667,433l3-1.333l-0.583-1.25l3.833-4.333l2.833-0.667l0.167-2.333l5.917-4.667L101.5,413l2.167-1l3.75-5.667
	l2.5-0.916c0,0,1.25-3.25,2.25-5.417C126,383.75,139.833,365.917,147,354.917c13.583-18.833,22.833-40.5,22.917-40.75
	s7.167-12.5,7.167-12.5l-8.75,21.667l-7.167,14.25c0,0-8.833,14.417-11.167,17.917c-3.417,5.583-17.5,25.667-17.5,25.667
	S99.167,420.25,96.75,423.5c-4.917,3.25-31.833,35.167-31.833,35.167L63.75,455z M320.625,177.375
	c-10.75,3.5-30.832,8.31-77.126,45.158L215.875,250l-17.75,26.375c0,0,19.625,45.625,73.375,69.125c1.5-1.25,0-4.75,0-4.75
	s-12.5-23.75-14-40.5c-0.25-17-3.588-43.749,3.331-52.25c2.419-3.25,2.919-9.75,2.919-9.75s4.5-14.625,24.125-27.625
	c8.875-7.375,25.375-20.875,25.375-20.875l12.25-9.25C325.5,180.5,331.375,173.875,320.625,177.375z M300.75,196.125
	c-6.625,4.25-25.75,22.625-30.875,28.125c-6.25,2.75-9.875,16-10.875,22.125c-5,6.5-5.125,30.375-4.5,46
	c-2.5,21.375,13.002,43.75,13.002,43.75l0.998,3.5c0,0-20.625-11.75-30.25-18.625c-29.5-20.75-37-47.125-37-47.125
	s-0.25-1.625,3.375-1.625c-0.75-7.875,41.25-48.75,41.25-48.75l19.75-13.125c0,0,1.875-1.625,17.75-12.75
	c25.375-16.5,39.125-18.25,39.125-18.25S307.5,191.5,300.75,196.125z M196.625,278.75c0,0,9.75,33.5,48.75,56.125
	c13.625,7.875,32.75,18.875,32.75,18.875v-4.875c0,0-16.875-41.75-16.875-59.25c-0.625-13.375,2.13-45.75,6.252-49.625
	c1.873-5.25,6.373-13.5,7.623-13.75C278.5,223,309,194.875,309,194.875l25.375-21.75l3.25-3.5l-41.916,17.66l-21.185,12.506
	c0,0,23.288-22.515,61.101-32.167c5.75-0.875,12.75-3.875-4.625,11.75c-11.75,9.625-54.25,48.5-54.25,48.5s-4.75,6.625-6.25,14.75
	c-1.625,4.875-5.25,15.125-6.375,32c0,6.5-0.5,17.25,0,21.75c1.875,6.75,6.875,25,9,32.5c3.375,9.125,6.75,18.375,6.75,18.375
	l0.625,3.125c0,0,3.834,8.243-2.375,7c-7.5-4.25-10.623-6.5-10.623-6.5L261,346.25l-9.375-4.625l-8.875-5l-7.5-4.791l-8-6.334
	l-16.75-16.375l-8.75-12.5l-7.125-13.5L196.625,278.75z M490,183.25c3.688-2.317,8.75,1.5,9.875,3.375c1.75-1.625,3.875,0,7,3.375
	c1.75,2.75,1.875,11.25,1.875,11.25l-1.375,15.375l-2.625,2.125c0,0,1.25-21.375,0.625-27.625c-0.5-2.5-3.75-1.125-3.75-1.125
	l-4.375,27.125l-2.25-0.25c0,0,2.625-21.25,3.125-28.625C496,181.875,489.5,187,489.5,187v10.125c0,0-0.75,7.5-1.625,11.5
	c-1.75,1.25-3.5,10-3.5,10l-6,21.75l-6.125,19.75L463,292l-7.5,22.75l-3.375,8L450.25,338l-5.75,19.625l-5,15.25l-3.625,15.25
	l-1,2.375H432.5l1.875-8.5l4.5-15.125l4.875-15.125L448,338l2.5-17.125l5.837-15.25l4.538-13.5l5.75-18.5l5.75-21l4-14.625l5.125-19
	l6-17.875l0.25-17h-1.25l-2.125,16.25l-5.125,12.25l-3.625,13.625l-2.5,8.125L464.25,268.5l-5.5,24.875l-14.625,41.75L427.25,390.5
	l-2.375-0.625l1.125-6.5l3.5-12.5l9.25-27.125l7.375-21.875l11.25-32.125l3.375-16.5l3.75-15.875l4-17l5.25-13.25l4-16.125
	l2.375-8.375c0,0,1.625-6.25,2.625-14.75c2-11.375,6.75-6.875,6.75-6.875S489.875,182.25,490,183.25z M466.813,327.5l-10.476,29.125
	l-9.337,27l-3,6.875l-1.625,3.75l3,0.625l9.219-24.375l5.531-17.5l3.625-8.125l4.5-17.375H466.813z M469,342.75l-10.125,33.125
	l-6.375,17.5v3.125c0,0,3.25,0.75,2.813,0c-0.437-0.75,12.938-47,12.938-47l2-6.75H469z M657.168,366.427
	c-3.333-5.74-48-21.003-48-21.003s-44.834-13.424-69.167-21.09c-39.839-17.7-75.5-13.5-75.5-13.5s-0.667,1,0,2.333
	c33.833-5.167,87.173,17.315,87.173,17.315c101.66,27.185,111.776,42.685,111.776,42.685
	C663.399,372.166,661.334,367.833,657.168,366.427z M663.45,377.5c0,0-26.949-18.102-86.283-35.717
	C550.5,334,529.667,326,508.75,321.333c-10.417-2.333-19.833-5.333-47.375-3.5c0.458-0.667,1.958-3,1.958-3
	s41.501-1.5,79.167,13.917c23.833,7.083,59.333,18.75,59.333,18.75l45.667,17.167c0,0,13.548,6.668,15.95,11
	C664.666,377.333,663.45,377.5,663.45,377.5z M678.25,307.75c0,0-117.25-63.25-154.75-73.5C490.75,229,489,228.5,489,228.5
	l1.75-2.75c0,0,45,4.5,80,25.5c34.25,15.5,79.75,37.5,79.75,37.5l26,16.25c0,0-38-27.75-100.75-53.5
	c-26.295-10.775-31.666-18.25-84.999-27c-0.75-1.333,0.666-2.083,0.666-2.083s49.295,6.478,68.751,18.583
	c17.416,8,56.166,26.5,56.166,26.5l30.75,15.75c0,0,25.749,13,31.583,20.667C679.751,305.583,678.25,307.75,678.25,307.75z
	 M682.37,295.607L690.675,312c0,0-0.271,11.775-0.946,19.493c-0.57,6.441,0.946,36.257,0.946,36.257s-1.175,30.75-2.925,41
	c6-3.5,4.161-35.75,4.161-35.75v-41l3.589,43.75l-3.589,29.772l-2.783,49.221L678.25,503.75l5.75-11.875l7.048-35.359L694,423
	l1.75-20c0,0,2.5-35.5,1.25-50.345c-0.5-17.095-5.089-40.405-5.089-40.405l-4.411-11.5l-3.5-6.5L682.37,295.607z M660,391.25
	c0,0-0.5,96.5-5.5,108.75c3.5,2.25,2.75,0,2.75,0S668.75,393.75,660,391.25z M669.25,499.25c-9.25-1.5-3.75-18.5-4-25.25
	c2.221-3.263,2.5-51.5,2.5-71.75C665.5,414.5,662,501,662,501s6,1.25,10.75,2.75c4.75-1.25,6.311-20.75,6.311-20.75l-1.811-1.25
	C675.5,487.5,673.25,498.25,669.25,499.25z"/>
<g>
	<path fill="none" d="M91.906,344.319l0.644-0.397C92.238,343.934,92.016,344.057,91.906,344.319z"/>
	<path fill="none" d="M140.237,302.018c-1.481-0.321-2.314,0.95-3.262,1.787c-8.715,7.698-17.571,15.251-26.025,23.229
		c-4.314,4.07-9.603,7.177-12.799,12.403l-0.304,0.227c-0.655,0.026-1.069,0.335-1.177,1.003l-0.001,0.004
		c-0.607,0.057-0.954,0.373-0.991,0.996l-0.009,0.008c-0.354,0.317-0.709,0.634-1.063,0.95l0.014-0.014
		c-0.105,0.076-0.21,0.151-0.316,0.227l4.863-3.004L113,327.5c0,0,10-6.5,21.333-13.333
		C133.664,310.751,136.549,306.218,140.237,302.018z"/>
</g>
<path fill="none" d="M583.334,265c0,0-1.666-0.541-1.583,3.792c-1,2.208-1.917,4.208-1.917,4.333s5.167,8.25,5.167,8.25l6.875,9.292
	l7.666,9.667v2.417l-9,1.625l-4.333,1c0,0,2.708-14,1.583-15.75c-2.5,6.083-4.166,8.542-4.166,8.542l-0.5,3.042L579,305.375
	l-9.875,10.25c0,0-1.875,2,3.25,2.25c8-0.625,18.125-3,20.75-3.5c6.625-0.5,16.75-2.875,16.75-2.875l6-1.625l-9.25-11.512
	l-14.292-19.738l-6.333-8.5l-1.625-1.625C584.375,268.5,584.543,265.5,583.334,265z"/>
<path fill="#EEBB5C" d="M546.051,601.795L538,607.5l-9.164-3.646l-64.169-28.687c0,0-13,0-18.667-1c-5.667,1.833-8.667,4-8.667,4
	l-3.166,3.694L427,578.333L420.667,576l-2.5-2.667H342.5l-2-9.833l3-4l43.667-3c0,0-38.834-9.833-38.5-24.5
	c4-0.667,8.333-1.667,8.333-1.667s22,16,54,11c10.667,2.834,13.667,4.5,14.667,5.5s1.833,1.667,1.833,1.667s4.666-3.333,10.5-2.5
	s13.834,4.167,13.834,4.167l1.729,0.458c0,0,8.188-4.75,10.938-5.25c2.813,0.438,4.125,0.5,6.25,3.563
	c2.188,3.125,5.625,6.313,5.625,6.313s13.5,2.25,19.25,0.75c5,3.375,23.875,15.125,43.75,16.875
	c6.375,0.75,20.25,4.125,19.125,8.375C559.625,584.5,546.051,601.795,546.051,601.795z M536.667,342.167c0,0,1.25,8,3.833,9.833
	c-15.167-4.083-10.084-0.833-17.667-5.333c-4.166-0.417-7.416,1.167-6.916,2.417s0.999,3,6.666,4.083
	c4.75,4.583,5.668,6.5,24.584,7.75c2,2.333,9,3.333,10,0c6.833-0.5,18.25-3.75,18.75-5.917c-3.5-2.167-10.917-4.25-10.917-4.25
	s2.917,2.25-12,3.083c-2.833-4.25-4.667-8.5-4.667-8.5S538.834,341.75,536.667,342.167z M497.583,377l5.25,1.333
	c0,0-3.749-8.417,3.084-7.917c4.083,0.167,5.749,1.333,7.916,9.833c5.334,2.25,11,3.5,11,4.667c6.5-5.583,9.333-8.333,13-6.5
	c2.5,2.5,2.422,4.518-1.747,8.134c-3.919,0.699-5.586,3.283-5.586,3.283s-4.999,6.417-6.083,6.583s2.834,4.501,2.5,6.417
	c-1.417,2.833-10.084,6.334-12.334-1.25c-5.75,2.25-12.972,3.785-17-2.167c-3,0.417-5.5-6.417,0-5.917
	c6.917,1.5,12.834,0.417,12.834,0.417l-4.834-8.167l-9-1.417l0.417-3.25l7.667,0.417l-7.417-3L497.583,377z"/>
<path fill="#F98B06" d="M409.167,272.5l13.5-5.833l9.167,5.833c0,0,5.333-0.167-0.667,3.333C424.167,283.167,413,290,404,292.167
	c-1.666,4.833,1.333,7.833-4,8.5c3.667,3.667,6.833,11.167,7,15.667c2.167,3.667,8.834,15,0.334,15.5
	c-5.667-0.167-7.334-2.167-7.334-2.167l-6.333-16.333c0,0,2.167-3.333-15-4.833c-1.167-1.333-1.917-3.063-1.917-3.063l-12.188-0.063
	l-1.938-1.75l-11.563-0.125c0,0,0.5,1.313-4.875-0.438C341.813,303,340,304.375,340,304.375s1.625,3.688-8.375,4.625
	c-5.875,0.938-10.688,1.188-11.438,5.813c0,0-0.375,12.813-11.75,4.938c-0.75-8.875-1.375-8.563,3.625-17.75
	c2.875-3.875,2.313-6.375,2.313-6.375s-4.5-13.375-3.625-31.125c-2.373,1.189-3.583,3.667-3.583,3.667l-6.5,62.833l-14-2.5
	l6.667-87.833c0,0-8.583-3.542-5.021-12.792c1.25-8.188,4.313-15.375,4.313-15.375l2.75-5l5.125-1.375l3.75-1.75h2.125l1.75,2.375
	l17-13.25l26.75-27.5c0,0,7.125-4.625,7.063,0.813c1.313,2.125,1.125,2.438-7.25,10.688c-4.875,4.75-5.5,5.938-5.5,5.938
	l52.313,3.479c0,0-19.416-11.583-31.333-14.417c-1.75-1.5,1.333-2.917,6.917-1.75s24.667,8.5,30.917,17.083
	c8.5,1.333,19.168,0.5,20.584,4.667c8.75-1.167,28.834-4.083,30.75-0.75c-2.667,3.5-9.916,10.833-28,17
	c5.833,3.083,28.916,18.375,10.416,23.875c-6.5,2.5-9,2-10.5,0.75s0.75-4.125,0.75-4.125l-1.625-3.625L412.5,223.75l-0.375-4.25
	L400,218.625l-1.5-1.375l-12.875-0.75l-3.875-1.875L369.5,214.5l-14.375,0.375c0,0,2.75,1.625-6.875,1.75
	c-4,3.125-3.125,4.625-8.75,5.125c-4.75,1.125-25.417,1.583-25.417,1.583s5.917,7.25,2.583,13.917c5.583,6,7.5,8.25,0.083,13.667
	c-1.083,1.417-3,3.771,1.813,3.208c6.063,1.375,11.063,0.375,9.875,5.188c0.5,4.688,0.313,6.188,0.313,6.188s2.188-4.813,4.125-4.75
	c3.688,1.063,13.688,3,14.063,4.75s1.063,2.25,1.063,2.25l12.688,2.25l14-0.188l14.938,0.813l6.125-5.125
	c0,0,11.125,3.5,13.375,4.125S409.167,272.5,409.167,272.5z M265,360.833l-10.5,13.5L302,403.5c0,0-5,6.75,1.5,10
	s11.583,6.084,11.583,6.084s1.417,0.916,6.833-4.167c4.583,0.083,8.5,1.834,12.333-1.583c3.833-3.75,9.667-11.084,9.667-11.084
	s0.333-13.666-12.333-15.083c-11.583-1.583-12.083-3.333-21.333,1.417C300.167,383.417,265,360.833,265,360.833z M396.917,405.25
	l-1,10.083l6.667,6.334l4.417-1.334l4.417-6.874v-2.292C411.417,411.167,401.416,405.167,396.917,405.25z M695.489,566.617
	c1.922-4.563-1.521-9.534,1.073-14.045l-0.004-0.021c0.098-0.103,0.285-0.228,0.27-0.303c-0.063-0.254-0.196-0.488-0.303-0.729
	c1.773-3.159,0.281-6.449,0.385-9.679c0.616-0.396,1.23-0.799,1.848-1.194c2.696-1.943,2.745-5.886,5.729-7.61
	c-1.406-1.824-5.463-5.255-16.237-5.62c-6.667-2.083-8.917-2.75-8.917-2.75s8.334,18.333-7.166,33.5c-1,2.5,0,2.667,0,2.667
	s-5.5,1.666-11,10.333c-0.167,5.167-5.168,10-3.834,12.667S633,583.167,633,583.167s-80.166-2.333-124.833,5
	c-47.667,9.667-68.667,12.999-68.667,12.999l-3.604,0.08c-2.242,1.265-5.215,0.579-7.28,2.31c-7.345,0.98-14.536,2.621-21.543,5.045
	c-4.131,2.477-9.168,0.848-13.38,2.954c-5.78,0.356-11.23,2.128-16.683,3.898c-1.192,1.18-2.84,0.854-4.257,1.269
	c-6.267-0.182-12.05,2.027-17.956,3.628c-1.22,0.195-2.438,0.394-3.659,0.586c-0.964-0.144-1.326,0.311-1.22,1.229
	c-0.146,1.337-0.293,2.674-0.438,4.011c-1.068,3.522-1.305,7.081,0.616,10.328c0.815,1.377,1.844,4.125,4.27,1.371
	c1.328,1.582,2.936,1.066,4.578,0.672c32.247-7.748,64.433-15.805,97.087-21.691c8.037-1.445,15.811-4.47,23.849-5.935
	c0.02-0.006,0.052-0.018,0.052-0.018s0.222-0.036,0.616-0.103c0.444-0.076,0.892-0.146,1.335-0.215
	c12.251-1.955,78.979-12.36,108.282-11.756c32.333,0.667,47.333,2.333,47.333,2.333l3.25-0.041c0,0,14.75,5.125,24.375,4.75
	c1.988,1.053,4.911,2.785,8.26,4.297c3.422,0.349,6.805,0.466,9.642-2.496l0.319,0.259c0,0,0.413-0.029,0.408-0.039l0.308,0.16
	l0.346-0.012c5.414-0.874,9.722-3.318,12.085-8.521c2.219-3.401,2.188-7.156,1.713-10.982c0.194-0.856,0.389-1.713,0.583-2.569
	c4.586-6.525,4.326-10.096-1.141-15.709C696.926,569.046,696.208,567.832,695.489,566.617z M732.992,510.146
	c-0.985,3.938-2.882,5.041-5.089,5.291l-23.57-8.771l-3-6.833v-5c0,0,1.371-4.626,4-3.834c0,0,16.756,4.924,26.438,9.133
	C735.427,502.656,734.604,503.7,732.992,510.146z M713.333,453c0,0-6.667,1.668-5,10.834c1.334,4.166,2.834,5.999,13.334,10.666
	c10.5,6.167,12.834,9.666,10,13.5c-0.059,1.247-0.097,2.422-0.121,3.415c3.558-1.413,8.257-0.888,9.771-5.769
	c0.08-0.693,0.157-1.389,0.237-2.079c1.413-2.944,0.66-6.244,1.529-9.284c0.623-2.182,0.479-4.038-0.383-5.589
	C737.792,463.87,728.421,456.746,713.333,453z M748.608,395.533c2.171-4.47,2.149-9.214,1.75-14.005
	c0.631-5.009-1.512-9.431-2.971-13.996c0.656-4.404-0.629-8.357-2.813-12.1c-0.118-3.104-2.922-5.109-3.317-8.1
	c0.821-3.218-0.157-6.088-1.711-8.846c0.053-0.89-0.229-1.582-1.128-1.91l-0.005-0.006c0.002-1.223-0.565-1.973-1.8-2.17
	l-0.009-0.015c-1.138-4.135-4.556-6.652-6.99-9.865c-4.271-6.122-11.005-9.388-16.581-13.963c-3.884-3.186-6.701-7.916-12.022-9.254
	c-3.059-1.879-6.203-3.553-9.085-5.696c-0.006,0.001-0.016,0.003-0.016,0.003l3.589,5.888l6.5,3.667V307l5.333,3.833l-2,2.5l3.834,2
	l7.166,4c0,0,2,1,4.167,3.667c-5.333-1.333-6.667,1.5-6.667,1.5l3.5,4l6.5,5c0,0,3.834,1.5,10.667,6.833
	c-4.5-3-14.167-2.833-14.167-2.833l-4,3.333l3.834,2.833l4,4.5l8.166,4.5l7.333,7.833c0,0-1.166-0.667-7-2.667
	c-5.667-2.5-11-0.167-13,2.667c-2.667,1.833,1.834,5,1.834,5s3,2,7.166,5.333c14.166,5.333,14.501,15.333,14.667,20.833
	c-3-3.333-14-5.5-20.666-5.167c-6.666,0-4,6.833-4,6.833l3.666,3.167c0,0,3.334,3.5,8.167,6.833c6.333,1.166,10,6.167,12.833,10.834
	c1.166,3.167,0.834,5.5-1.166,10.833c-0.833-1.833-14.5-7.5-21.167-8.5c-8.5,2.167-5.5,11-5.5,11l3.5,4.167c0,0,9.5,4.5,17,8.833
	c8.167,4.333,3.5,12.5,3.5,12.5l-1.5,3.667l1.801,1.901c2.083-2.467,5.311-3.897,6.756-6.938c0.269-0.396,0.531-0.795,0.798-1.189
	l0.036-0.104c2.104-7.717,1.923-15.344-0.892-22.868c3.156-3.726,6.535-7.364,4.925-12.91
	C751.919,408.007,751.355,401.608,748.608,395.533z M663.25,356.25l4.5,41.058V431.5V474l4.75,3.25h1.75l11,2.25l2.25-8l-1.25-68
	L685,376.25L682.25,358c0,0,8.572-6.5,9.661-12.25c-1.161-6.75-5.911-14-11.911-18c-0.5-8-4.25-19.375-12.875-26.75
	c1-8.375,7.212-29.546,7.212-29.546s-8.835-4.79-14.961,0.065c-4.001,7.23-8.501,21.48-8.501,21.48S634.5,300.5,635,306.625
	c1,6.625,7.875,13.5,14,17.125c2.75,3.5,6.125,10.25,6.125,10.25l1.625,1.375c0,0-9,8.125-6.625,12.125
	c2.875,4.75,8.375,11.875,8.375,11.875L663.25,356.25z M496.5,295.609L473.75,403.5l16.75,4l24-110.25c0,0,5.5,6.5,8.75,3.5
	c4.25-3.25,9.25-9,9.25-9s1.625-8.436-11.125-22.405c1.125-10.095,3-19.47-3.375-30.47c4.75-9.375,29.896-43.952,29.896-43.952
	l-0.521-4.798c0,0-11.125-2.75-15.625,1.375c-4.75,5.5-25.5,31.875-26.5,37.125c-11.5,1.25-21.125,5.375-18.625,13.625
	S491,252.625,491,252.625s1.75,5.875,3.75,6.25C493,264.5,492,271.5,492,271.5s-8.375,5.5,0.5,9.625
	c-1.25,8.875-3.875,13.5-0.75,15.25C492,298.625,490.25,301.093,496.5,295.609z M453.25,429.167c0,0,0,3.25-0.917,7.583
	c1.667,3.583,12.75,5,12.75,5l4.667-8.5l1.416-8.25l-12.083-6.083l-3.667,1.417L453.25,429.167z M618.917,511.417
	c0,0,0.583,1.75,3.5,2.916c4.584,5.333,8.166,4.084,8.166,4.084l5.084-4.417l-9.101-4.369l-3.233-0.964h-3.916L618.917,511.417z"/>
<path fill="#F9E97C" d="M289.417,362.25c0,0,0.5-5.75,25.5,1.417c12.667,3,28.084,7.916,29.417,10.333
	c3.75,1.833,17.333,10.667,17.333,10.667s-23-5.167-30.5-8.167c-11.333-3.75-23.75-7.75-23.75-7.75l-10.667-3.917L289.417,362.25z
	 M189.875,567.75c-3-0.875-5.875-3.875-5.875-3.875l-3-3.5l-27.125-11.125l-13-6.375l2.625-3.75c0,0-26.5-10.875-33.375-18.75
	c-11.25-7.625-26-17.25-26-17.25s-14.25-13-17.125-24.75c-5.5-12.75-15.375-41.75-15.375-41.75l-3.25-10.125l-3.125-6.625
	L42.5,413.5l-1.75-3.75l-1.375-8.125c0,0-2.375-13.375,6.375-19.5c1.689-2.034,3.372-4.251,4.881-6.328
	c-2.646,0.22-5.14,1.055-7.578,2.096c-10.948,4.673-12.853,14.263-13.367,24.605c-0.541,4.932,0.319,9.61,2.533,14.046
	c0.35,1.097,0.591,2.243,1.065,3.282c7.691,16.839,14.432,34.007,18.967,52.012c1.107,4.396,2.114,8.998,5.12,12.705
	c1.215,3.816,3.285,7.126,5.985,10.06c7.815,10.59,17.702,19.011,28.108,26.891c9.61,7.247,20.013,13.135,30.985,18.043
	c2.449,1.364,4.889,2.745,7.347,4.095c12.053,6.612,24.917,11.657,36.623,18.943c1.54,1.873,4.219,2.003,6.42,3.836
	c-3.853,0-7.096,0-10.339,0c-9.793-2.162-19.752-2.425-29.679-1.903c-4.909,0.259-4.293,5.297-5.075,8.509
	c-0.851,3.496,2.42,3.229,4.615,3.496c6.91,0.854,13.816,1.769,20.748,2.403c12.019,1.104,23.634,5.423,35.908,4.452
	c2.131-0.169,3.727,1.174,5.44,2.146l0.057,0.021c0.396,0.903,0.779,0.604,1.159-0.013c3.447-0.498,6.623-2.495,10.235-2.072
	C205.014,579.986,201.756,572.868,189.875,567.75z M263.385,583.877c-0.975-0.146-2.067-0.604-2.839,0.188
	c-4.037,4.126-8.594,1.938-13.04,1.182c-0.983,0.22-1.913,0.54-2.813,0.911l0.141-1.072l13.5-5.916l8.417-0.584l6.167-4l1.167,2.167
	l1.667,0.083v-2.5l4.75-0.75l2.333,1.833l0.5-1.5l3.75-2.333l2.583,1.333l4.833-3.416h13.751l-0.417,4.083c0,0,6,0.917,5.75,3.333
	c5.333-3.584,7.583-2.75,7.083-0.416c3.333-3,7.083-3.584,7.75-1.917c5.417-3,8.667-1.75,10,1c4.417-3.833,10-1.833,16.75-0.75
	c6.5,1.083,4.083,7.833,4.083,7.833h9.25l0.151,1.29c-0.396-0.019-0.794-0.025-1.196-0.019c-6.806,3.979-12.751,10.574-21.967,7.222
	c-2.591,0.183-1.786-1.51-1.581-2.867c-4.92-1.877-10.481-1.15-15.232-3.729c-0.112-0.313-0.229-0.633-0.343-0.948
	c-7.149,1.688-14.243,2.831-21.57,0.515c-2.945-0.932-5.715,2.12-9.001,1.384c-2.376-0.531-4.965,0.445-7.316-0.756
	c-0.335-0.146-0.67-0.292-1.005-0.438c-1.055-1.719-2.41-2.212-4.457-1.646C277.886,584.638,270.665,584.964,263.385,583.877z
	 M119.633,526.636c0,0,45.428-6.195,65.814,0c22.386-1.803,62.16-5.039,79.773-2.754c27.28-1.382,85.28,0.785,85.28,0.785
	s33.001,0.836,52.334,6.168c21.333,4.999,44.333,10.665,44.333,10.665s22.333,2,29.333,3s39.334,11.135,39.334,11.135L566.5,573.5
	l17,8.361h22c0,0-55.333-22.428-72-26.229c-13-3.468-37.576-14.12-74.333-17.135c-29.667-8-52.333-12.479-73.333-15.406
	c-17.667-3.261-31.333-4.261-45.333-5.261c-19.667,0-82.333,0-82.333,0h-43.873h-31.46l-24.989-1.333l-32.678,3.333l-5.533,1
	l-5.966,0.334L119.633,526.636z M163.833,295.167c-3.778-0.189-6.484-0.06-8.182-2.761c0.271-0.042,0.546-0.077,0.827-0.102
	c0.046-0.305,0.147-0.591,0.303-0.858c0.025-1.296,0.049-2.593,0.074-3.889c-0.13-3.841,2.092-5.061,5.536-5.173
	c3.797-0.123,7.481,0.458,11.14,1.352c10.368-5.579,15.947-15.493,22.298-24.696c1.118-1.621,1.892-3.491,3.657-4.589
	c1.822-4.282,5.704-6.707,8.861-9.776c6.246-6.073,13.844-10.579,19.402-17.526c3.561-4.453,8.817-4.567,13.974-4.601l-5.06,6.782
	c0,0-22.68,19.502-30.754,31.169C199.167,269.833,184.391,290.495,163.833,295.167z"/>
<path fill="none" d="M751.424,414.563c0.495-6.556-0.065-12.951-2.813-19.026c2.171-4.47,2.149-9.214,1.75-14.005
	c0.631-5.009-1.512-9.431-2.971-13.996c0.656-4.404-0.629-8.357-2.813-12.1c-0.118-3.104-2.922-5.109-3.317-8.1
	c0.821-3.218-0.156-6.088-1.711-8.846c0.054-0.89-0.229-1.582-1.128-1.91l-0.005-0.006c0.002-1.223-0.565-1.973-1.8-2.17
	l-0.009-0.015c-1.138-4.135-4.556-6.652-6.99-9.865c-4.271-6.122-11.005-9.388-16.581-13.963c-3.884-3.186-6.701-7.916-12.021-9.254
	c-4.597-2.823-9.399-5.158-13.185-9.367c-2.63-2.928-5.922-5.775-10.249-6.48c-0.394-0.797-0.967-1.347-1.62-1.792
	c3.817,3.41,5.776,10.83,8.207,16.502c9.587,9.916,5.501,29.5,5.501,29.5s0.41,10.238,0.5,34.833c1.5,24.5-3.918,39-3.918,39
	l-1.685-30.126c0,0-3.064-35.541-3.231-45.874c2-6.333-1.833-24.833-5.833-32.667c-1.452-7.194-2.557-12.833-2.557-12.833
	c0.014,0.003,0.024,0.01,0.039,0.014c-0.13-0.079-0.261-0.154-0.384-0.241c-0.014-0.745-0.024-1.491-0.039-2.236
	c-0.014,0.003-0.021,0.01-0.03,0.013l0.028-0.042c0,0.01,0,0.019,0.002,0.029c0.99-0.31,0.973-1.251,1.236-2.015
	c0.691-1.99,3.001-4,0.538-6.069c-2.911-2.445-11.528-2.25-14.961,0.065c-3.913-2.647-5.24-7.267-8.157-10.699
	c-6.129-7.216-11.995-8.329-19.813-3.39c-0.618,0.393-1.235,0.786-1.854,1.179c-7.344-5.148-14.666-10.328-22.037-15.438
	c-20.747-14.385-41.232-29.167-63.313-41.524c1.546-3.269,4.492-5.961,4.128-10.018c-5.293-2.186-10.565-4.896-16.114-0.64
	c-6.057-3.255-11.755-7.303-18.759-8.455c-0.277-0.066-0.555-0.133-0.832-0.199c-2.36-0.951-4.721-1.903-7.082-2.854
	c-6.229-4.416-12.727-8.462-19.925-10.994c-29.474-10.368-59.879-14.253-91.037-12.533c-1.052,0.005-2.104,0.01-3.155,0.015
	c-7.009-0.972-13.67,0.7-20.291,2.675c-0.942-0.186-1.891-0.376-2.749,0.282c-0.723,0.18-1.443,0.36-2.169,0.541
	c-1.668,0.146-3.335,0.292-5.002,0.438c-4.01-2.559-7.829-1.202-11.628,0.565c-8.132,2.197-16.38,4.057-23.854,8.169l-0.15,0.032
	c-1.143-0.31-2.083,0.064-2.898,0.857c-20.452,5.686-36.884,17.909-52.138,32.051c-1.052,0.223-1.729,0.872-2.111,1.854
	c-0.346,0.318-0.693,0.636-1.039,0.954c-3.621,1.567-5.423,5.544-9.176,6.931c-5.029,3.257-9.384,7.354-13.941,11.2
	c-5.917,0.145-12.375-0.562-16.528,4.631c-5.558,6.947-13.156,11.453-19.402,17.526c-3.157,3.069-7.039,5.494-8.861,9.776
	c-1.765,1.098-2.539,2.968-3.657,4.589c-6.351,9.203-11.93,19.117-22.298,24.696c-3.659-0.894-7.343-1.475-11.14-1.352
	c-3.444,0.112-5.666,1.332-5.536,5.173c-0.025,1.296-0.049,2.593-0.074,3.889c-0.156,0.267-0.257,0.553-0.303,0.858
	c-4.909,0.428-8.367,3.57-11.99,6.406c-0.775-0.022-1.498,0.011-1.212,1.128c-0.194,0.169-0.391,0.332-0.592,0.491
	c-0.216,0.012-0.432,0.022-0.648,0.034c0.073,0.119,0.146,0.238,0.22,0.358c-0.181,0.178-0.364,0.354-0.549,0.529
	c-0.229,0.031-0.459,0.063-0.689,0.094c0.076,0.125,0.151,0.249,0.228,0.373c-0.154,0.156-0.309,0.313-0.463,0.47
	c-1.839-0.813-2.749,0.682-3.808,1.617c-8.715,7.698-17.571,15.251-26.025,23.229c-4.314,4.07-9.603,7.177-12.799,12.403
	l-0.304,0.227c-0.655,0.026-1.069,0.335-1.177,1.003l-0.001,0.004c-0.607,0.057-0.954,0.373-0.991,0.996l-0.009,0.008
	c-0.354,0.317-0.709,0.634-1.063,0.95l0.014-0.014c-0.405,0.291-0.811,0.581-1.216,0.872c-0.216,0.133-0.423,0.278-0.622,0.437
	c-0.591-0.08-0.913,0.175-0.961,0.771l-0.14,0.118c-0.587-0.029-0.899,0.257-0.958,0.834c-12.412,10.813-26.965,18.85-39.042,30.097
	c-3.04,0.058-5.868,0.975-8.626,2.152c-10.948,4.673-12.853,14.263-13.367,24.605c-0.541,4.932,0.319,9.608,2.533,14.046
	c0.35,1.097,0.591,2.243,1.065,3.282c7.691,16.839,14.432,34.007,18.967,52.012c1.107,4.396,2.114,8.998,5.12,12.705
	c1.215,3.815,3.285,7.126,5.985,10.06c7.815,10.588,17.702,19.011,28.108,26.891c9.61,7.247,20.013,13.135,30.985,18.043
	c2.449,1.362,4.889,2.745,7.347,4.095c12.053,6.612,24.917,11.657,36.623,18.943c1.54,1.872,4.219,2.003,6.42,3.836
	c-3.853,0-7.096,0-10.339,0c-9.793-2.162-19.752-2.427-29.679-1.903c-4.909,0.259-4.293,5.297-5.075,8.509
	c-0.851,3.496,2.42,3.228,4.615,3.496c6.91,0.853,13.816,1.767,20.748,2.403c12.019,1.104,23.634,5.423,35.908,4.452
	c2.131-0.17,3.727,1.174,5.44,2.146l0.057,0.021c0.396,0.904,0.779,0.604,1.159-0.012c3.665-0.529,7.024-2.758,10.927-1.966
	c1.894,2.994,2.746,6.884,6.857,7.97c1.947,0.789,3.966,1.438,5.829,2.396c5.875,3.011,11.17,2.837,16.421-1.695
	c3.446-2.974,7.114-5.93,11.797-6.979c4.446,0.757,9.003,2.943,13.04-1.183c0.772-0.79,1.864-0.332,2.839-0.187
	c7.28,1.087,14.501,0.761,21.596-1.202c2.047-0.566,3.402-0.072,4.457,1.646c0.335,0.146,0.67,0.291,1.005,0.438
	c2.351,1.201,4.94,0.224,7.316,0.756c3.288,0.736,6.058-2.314,9.001-1.384c7.327,2.315,14.422,1.175,21.57-0.515
	c0.114,0.315,0.229,0.635,0.343,0.947c4.751,2.578,10.313,1.853,15.232,3.729c-0.205,1.356-1.01,3.05,1.581,2.867
	c9.216,3.354,15.161-3.242,21.967-7.223c6.694-0.118,12.587,3.389,19.069,4.229c0.652,0.122,1.31,0.244,1.965,0.366
	c0.528,0.666,1.205,0.896,2.03,0.692c0.652,0.105,1.311,0.212,1.965,0.317c1.484,1.137,3.308,1.25,5.037,1.645
	c7.266,2.015,14.528,4.032,22.013,5.118c5.725,1.722,11.813,1.909,17.414,4.132c-2.278,2.372-5.92,1.101-8.331,3.115
	c-7.345,0.979-14.536,2.621-21.543,5.045c-4.131,2.475-9.168,0.845-13.38,2.954c-5.78,0.354-11.23,2.128-16.682,3.897
	c-1.193,1.181-2.841,0.854-4.258,1.27c-6.267-0.182-12.05,2.027-17.956,3.628c-1.22,0.195-2.438,0.392-3.656,0.586
	c-0.967-0.144-1.329,0.309-1.223,1.229c-0.146,1.337-0.293,2.674-0.438,4.011c-1.068,3.521-1.304,7.081,0.619,10.328
	c0.813,1.377,1.841,4.125,4.267,1.37c1.328,1.582,2.938,1.064,4.578,0.673c32.247-7.748,64.433-15.808,97.087-21.691
	c12.435-2.241,24.234-8.271,37.367-6.426c1,1.745,2.686,0.89,4.096,1.082c5.869,1.896,11.97,2.592,18.035,3.471
	c1.007,0.108,2.014,0.217,3.02,0.325c1.438,0.37,2.854,0.889,4.314,1.086c11.671,1.582,23.33,3.273,35.03,4.6
	c15.813,1.793,31.625,3.888,47.604,3.463c1.002,0.005,2.003,0.009,3.005,0.013c2.666,0.521,5.32,0.169,7.978-0.117
	c15.13-1.054,29.594-4.526,42.997-11.848c3.679-0.871,7.354-1.741,11.036-2.612c4.355,0.327,8.879,1.577,12.508-2.213l0.321,0.259
	c0,0,0.411-0.032,0.406-0.039l0.309,0.16l0.345-0.014c5.414-0.874,9.722-3.316,12.085-8.521c2.219-3.404,2.191-7.159,1.713-10.984
	c0.194-0.854,0.39-1.714,0.583-2.567c4.586-6.527,4.326-10.099-1.141-15.709c-0.721-1.215-1.438-2.431-2.155-3.646
	c1.922-4.563-1.518-9.533,1.073-14.045l-0.001-0.018c0.095-0.104,0.285-0.229,0.267-0.304c-0.061-0.256-0.195-0.487-0.303-0.729
	c1.776-3.16,0.284-6.45,0.385-9.677c0.616-0.399,1.232-0.799,1.849-1.197c2.702-1.947,2.743-5.901,5.748-7.622
	c6.015,4.626,10.347,3.618,12.834-3.16c1.135-3.085,1.865-6.315,2.779-9.481c0.098-0.628,0.194-1.259,0.291-1.888
	c0.259-0.689,0.521-1.386,0.776-2.076c0.245-0.319,0.491-0.643,0.73-0.957c4.268-0.476,9.241,2.01,11.071-5.313
	c1.972-7.885,2.771-7.685-4.373-11.997c0.962-2.24,1.925-4.479,2.888-6.72c3.563-1.436,8.291-0.885,9.813-5.783
	c0.08-0.693,0.16-1.386,0.24-2.079c1.413-2.942,0.658-6.244,1.527-9.284c1.119-3.914-0.23-6.803-3.784-8.711
	c-0.38-0.802-0.759-1.604-1.14-2.403c0.136-0.894,0.271-1.783,0.405-2.678c1.716-3.807,6.203-5.11,7.987-8.854
	c0.267-0.397,0.53-0.795,0.798-1.192l0.036-0.102c2.104-7.718,1.922-15.345-0.894-22.868
	C749.655,423.746,753.034,420.105,751.424,414.563z M186.916,297.584l-7.583,20.333l-13.5,34.667L140.5,393.417l-37,45.691
	c0,0-22.5,24.892-24.75,27.142s-5.5,5.5-7.5,7.5c0-2.75,2-6.5,10.75-14c18-17.5,39-47.25,39-47.25s23.25-29.75,28.25-40.133
	c20.5-25.133,27.5-59.367,30-69.367c2.5-17.25,10-12,10-12L186.916,297.584z M613.833,486.5c-11.333-3-65.937-25.333-65.937-25.333
	L503.833,439.5c0,0,32.333-14.666,24-45c4-5,4.668-9.667,11.334-7.333c9.954-1.991,30.146-2.34,35.917-29.963
	c0.02-0.228,0.083-0.37,0.083-0.37c-0.025,0.127-0.057,0.244-0.083,0.37c-0.11,1.289,1.237,5.377,24.083,2.63
	c17.333,7.333,27.333,12.333,27.333,12.333S617.833,476.5,613.833,486.5z"/>
<path fill="#38373A" d="M214.293,393.25L230.75,396l13.75,9.25l7.25,9.5l7.5,27l-6.25,21.5l-13.25,15.25l-26.5,4.25l-25-7.934
	l-17-24.816v-17.25l8-21.5l13-13.943l19.25-4.057H214.293z"/>
<path fill="#EEBB5C" d="M245,450.625c4,7.75,1.875,5.75,0,7.625c-2.25-3-23.5-14-36.625-18.5c1-3.625,15.875-2.625,15.875-2.625
	l-5.75-11l-28.125,21.5l-13.25-3l47.125-37C224.25,407.625,241,441.875,245,450.625z M252.125,470
	c-19.375,25.25-47.875,14.875-55.75,12.25c-27.875-17.75-27.625-32.375-28.5-40.5c-2.375-33.875,31.625-50,31.625-50
	c30.5-5.5,39.125,3.75,51.75,15.25S263.875,456.625,252.125,470z M249.75,415.5c-6.75-12-21.625-20.25-41-19.5
	c0,0-30.375,5.75-35,36.125c0.875,13.5,1.625,37.625,35,46.5c8.125,1.125,28.5,4,41-17.625C252.75,450.625,259,431.5,249.75,415.5z"
	/>
</svg>
